<svg id="Calque_1" data-name="Calque 1" xmlns="http://www.w3.org/2000/svg" xmlns:xlink="http://www.w3.org/1999/xlink" viewBox="0 0 587.04 506.3">
  <defs>
    <style>
      .cls-7{fill:#fff}
    </style>
    <linearGradient id="linear-gradient" x1="6.56" y1="499.35" x2="586.43" y2="499.35" gradientUnits="userSpaceOnUse">
      <stop offset="0" stop-color="#414042"/>
      <stop offset="1" stop-color="#6d6e71"/>
    </linearGradient>
    <linearGradient id="linear-gradient-2" x1="319.93" y1="378.46" x2="505.09" y2="378.46" xlink:href="#linear-gradient"/>
    <linearGradient id="linear-gradient-3" x1="232.07" y1="334.78" x2="377.79" y2="334.78" xlink:href="#linear-gradient"/>
    <linearGradient id="linear-gradient-4" x1="101.41" y1="376.1" x2="290.44" y2="376.1" xlink:href="#linear-gradient"/>
  </defs>
  <path d="M238.8 544.94c-43.48 10.79-166.5 8.11-208.53-62.65-15.94-52.15 31.33-33.3 96.42-23.9s112.55 20.87 123.18 37.95-11.07 48.6-11.07 48.6z" transform="translate(-6.51 -167.94)" fill="#f4cb13"/>
  <path d="M246.32 499.7C200 477.85 92.94 386.59 106.83 293.52c23.55-57.72 51.82-6.87 102.69 48.49s84.64 99.81 81.72 122.62-44.92 35.07-44.92 35.07z" transform="translate(-6.51 -167.94)" fill="#9fcc3b"/>
  <path d="M290.26 467.08c-32.62-42.56-87.49-178.9-27.56-259 51.24-42.47 52.3 18.46 72.3 94.42s29.45 133.56 15.23 153.43-59.97 11.15-59.97 11.15z" transform="translate(-6.51 -167.94)" fill="#4cc3cc"/>
  <path d="M377.67 478.59c40.57-14 136.7-84.43 130.32-173.27-16.63-57.16-43.56-13.58-89.94 31.09s-77.6 81.51-76.46 103.22 36.08 38.96 36.08 38.96z" transform="translate(-6.51 -167.94)" fill="#b73f97"/>
  <path d="M322.54 529.85C362.74 552.43 489.73 577 561 502.71c37.13-58.12-18.77-46.47-89.15-50s-123.53-.71-141.23 17.13-8.08 60.01-8.08 60.01z" transform="translate(-6.51 -167.94)" fill="#dd2928"/>
  <path d="M250.9 544.79c-40.53 15.48-141.39 12.51-210.44-88.64 0 0 54.72-8.21 144.24 31.68 0 0 63.06 30.62 92.21 52.45S361.67 568.4 384 568c38.05-.74 120.38-12 197-94.89 0 0 13.3-10.62-1.58-20.38-17.8-9.15-71.6-13.53-105.5-12s-94.81 13.55-119.31 44.19c0 0 27-25.53 81.42-29.24s95.16 5.94 118.28 11.7c0 0-64.62 57.19-122.55 66.29s-76.3 5-106.49-4.18-111.49-67.16-176.85-84.91c0 0-57-21.79-128-10.78 0 0-20.89 4-11.23 20.66s55.71 64.91 95.46 82.88c-.08.02 74.48 42.96 146.25 7.45z" transform="translate(-6.51 -167.94)" fill="url(#linear-gradient)"/>
  <path class="cls-7" d="M246.26 541c2.85-1.22 1.43-1.59 1.78-1.94-4.59 2.29-1.56 2.06-1.78 1.94zm-49.31 14.33c.3-.14.6-.27.9-.43-1.27.23-2.54.41-3.82.61s-2.56.43-3.84.56c2.26-.16 4.51-.5 6.76-.74zm-48.5-4.93a15.73 15.73 0 0 0 4.6 1.73c1 .24 2.06.47 3.19.69s2.33.37 3.56.55c2.45.39 5.06.59 7.57.91s5 .54 7.12.86l1.4.48c1.35-.33 2.68-.61 4-1-5.26-.25-11.34-.58-17-1.34a91.38 91.38 0 0 1-14.44-2.88zm-23.64-11.14c.62.58-.72.19-.86.15l6.4 2.15c-.53-.25-.67-.36-1-.52-.94-.36-2.3-.83-4.54-1.78zm4.58 1.74c2.39.84 1.66.43.69 0s-2.16-.78-.69 0zM108 532c1.9.84 4 1.68 6 2.45-.55-.46-2.13-1.35-3.28-2.05s-1.87-1.2-.89-.82l-2.21-1-.3-.14h-.15l-.19-.08-.36-.14-.6-.23c-.71-.26-1.05-.32-1.11-.23s.19.33.64.69l.83.63.51.37.24.13h.07l.13.08.27.17a3.46 3.46 0 0 1 .4.17zm-6.6-2l3.19 1.31a7.28 7.28 0 0 0-3.19-1.31zm10.25 4.36c-1.12-.46-2.24-.94-3.32-1.43l-.79-.36h-.09l-.18-.09-.36-.16h-.09l-.24-.12h-.11l-.21-.09-1.68-.7a7.53 7.53 0 0 0 .9.85 2.48 2.48 0 0 0 .77.29h.13l.13.06h.19l.52.16a6.5 6.5 0 0 0 .78.1c-.67.13.73.41 3.65 1.49zm3.64 2c3.26 1.87 7.69 4 1.26 1.8 6 2.5 8.68 3.11 8.32 2.69s-3.72-1.92-9.58-4.49zm30.32 15.02c1.62.58 3.26 1.12 4.89 1.68 1.49.17 3 .28 4.47.42-2.25-.14-9.56-2.62-9.36-2.1zM72.8 509.06c-.54 0 1.26 2.08 1.41 2.73 1.41.89 2.8 1.82 4.23 2.68-1.94-1.69-5.68-4.82-5.64-5.41zm1.4 2.73c-2.11-1.35-4.24-2.67-6.29-4.13a46 46 0 0 0 5.15 3.84c.94.58 1.2.57 1.14.29zM99.52 531l5.74 2.15.71.27 1 .45 1.37.57q1.4.56 2.83 1.1c-1.13-.44-2.25-.9-3.34-1.37l-2-.87-1.69-.66-3.39-1.33c-1.14-.44-2.28-.87-3.38-1.42.75.42 1.44.81 2.15 1.11zM51 490.59l3.68 2.26c-2.13-1.4-4.29-2.77-6.37-4.25.91.67 1.79 1.4 2.69 1.99zm-13.67-13.15c2.63 1.81-2.17-3.87.4-1.75-3.65-3.6-7-6.46-10-9.07 1.48 1.47 3 3 4.53 4.81s3.27 3.72 5.07 6.01zm-14.39-15.35c1.44 1.5 3.08 2.95 4.82 4.53-1.55-1.62-3.15-3.08-4.82-4.53zm35.23 37.27c-.29-.55-.85-1.62-3.8-4.63l1.56 2.69z" transform="translate(-6.51 -167.94)"/>
  <path class="cls-7" d="M56 497.51l-.06-.09-4.71-4.33zm2.73 2.33l-.56-.49a.91.91 0 0 0 .56.49zm24.45 20.32c-2-1-4.91-2.77-6.52-3.52s-1.89-.51 1.56 2.38c2.98 1.29-.94-2.02 4.96 1.14zm-22.42-17.01c2 1.82 4 3.49 6.07 5.24 0-.3-.86-1.49 1-.32-2.35-1.64-4.77-3.21-7.07-4.92z" transform="translate(-6.51 -167.94)"/>
  <path class="cls-7" d="M51.06 332.88l3.18 2.32-2.2-1.99-.98-.33z"/>
  <path class="cls-7" d="M31.2 472.86c-1.31-1.13-2.6-2.39-3.93-3.76s-2.61-2.88-4-4.46c2.77 3.59 5.87 7.16 8.93 10.44.65.25 2.37 1.33-1-2.22zm11.66 12.35l-.58-.5c.28.38.53.67.58.5zM19.2 439.63h-.58a1.57 1.57 0 0 1-.06.2zm13.38 36.13a29.64 29.64 0 0 0 5.42 5.13c-1.91-1.74-3.79-3.71-5.83-5.8-.28-.09-.38-.09.41.67zM15.85 453.4c.18.37.35.74.56 1.13l.72 1.2 1.56 2.55a31.83 31.83 0 0 0-2.84-4.88zm25.79 30.3l.36.3c-.62-.91-.59-.74-.36-.3zm0 0c-1.35-1.15-2.5-2-3.64-2.81 1.54 1.43 3 2.73 4.27 3.82a9.09 9.09 0 0 1-.63-1.01z" transform="translate(-6.51 -167.94)"/>
  <path class="cls-7" d="M30.13 431.73c-.26.48-2.64 1.21-5.94 1.84-.83.16-1.71.3-2.64.44-.46.08-.95.11-1.39.21s-.93.22-1.4.35a42.5 42.5 0 0 0-5.67 2c-1.62 1.13-2.26 2.14-2.36 2.75s.34.87 1 .91a18.38 18.38 0 0 0 2.86-.18c1.18-.12 2.55-.26 4-.36 0-.21 0-.41.76-.88a8.2 8.2 0 0 1 .74-.38l.5-.22.28-.11.18-.08c.13 0 .46-.12.77-.19l1-.22 2.56-.52c-.7 0-2.15 0-3.83.1h-1.02c-.37.05-.76.13-1.15.2-.78.16-1.55.35-2.25.55-1.4.39-2.5.81-3 .88s-.35-.27.93-1.16a20.14 20.14 0 0 1 5.12-2 10.94 10.94 0 0 1 1.61-.18h1.29c1.5 0 2.34.2 4.91.11-2.23-.27 1-1.09 4.59-2s7.4-1.61 6.18-2.34l-4.63.65c-1.54.22-3.07.57-4.6.84-.12-.28 3.2-1.12.6-1.01zm-18.5 14.05a6.68 6.68 0 0 0 .19 1.79 3.8 3.8 0 0 1 .48-2.53 5.92 5.92 0 0 1 2.36-1.85 19.3 19.3 0 0 1 2.9-2.41c.65-.48.89-.72 1-.92a15.07 15.07 0 0 0-5.12 3 4.8 4.8 0 0 0-1.7 3.55zm6.32 12.49a16 16 0 0 1-2-1.67l-1.1-1-.92-1c-1.14-1.13-1.86-1.57-1.05.64a24.61 24.61 0 0 0 1.73 2.41c.52.66.95 1.19 1.32 1.63a12.27 12.27 0 0 0 1.74 1.76 24.86 24.86 0 0 1 3.53 3.22c-4.86-5.89-4.07-5.11-2.87-4s2.75 2.6-.38-1.86c.93 1.13 1.9 2.19 2.76 3.23s1.7 2 2.56 3c-.87-1.07-1.65-2.16-2.4-3.23s-1.51-2.1-2.17-3.13l.15.31v.05c.31.58.39.79 0 .18a1.89 1.89 0 0 1-.2-.24 1.66 1.66 0 0 1-.68-.32c-2.38-3.59-.2-.69.68.32.07 0 .17.08.22.06v-.05c-1.51-1.94-3.13-3.89-4.38-5.81a18.43 18.43 0 0 1-1.67-2.73 11.2 11.2 0 0 1-.95-2.49 11 11 0 0 0 1.44 4 15 15 0 0 0 .86 1.39l1 1.59c.73 1.1 1.75 2.35 2.78 3.74zm52.34 57.5c-.34-.36-.28-.4-.26-.48-.88-.51-1.24-.68.26.48z" transform="translate(-6.51 -167.94)"/>
  <path class="cls-7" d="M65.56 511.38a30.72 30.72 0 0 1 4.82 3.2c2.38 2.16-.29.36-.35.71 1.94 1.14 6.62 4.13 1.34-.43l-1-.56a78.89 78.89 0 0 1-6.8-6.51c-1.85-1.93-3-3.3-2.5-3a27.39 27.39 0 0 0 4.49 6.59zm-25.94-25.51l-4.75-4.41-4.64-4.52 4 5.35.12-.59c5.04 5.36 4.35 3.79 5.27 4.17zm-19.14-46.14c-.34.45-.67.91-1 1.37.8-.52 1.8-1.09 2.3-1.35l3.55-1.18-2.79.57-.7.14c-.23 0-.48.1-.55.12s-.49.2-.81.33z" transform="translate(-6.51 -167.94)"/>
  <path class="cls-7" d="M29.73 269.63l-.53.92 4.31-.87-3.78-.05z"/>
  <path class="cls-7" d="M534.36 437.57l3.9.19c-1.85-.13-3.03-.18-3.9-.19zm-28.02-2.09l-.71.41c1.31-.19 1.85-.34.71-.41zM430.5 539.47h2.16l2.21-.06c1.44 0 2.82-.07 4-.16 2.29-.22 3.74-.48 3.28-.88l-2-.54a45 45 0 0 1-5.36 1.13c-.8.13-1.57.24-2.29.33s-1.36.14-2 .18zM413.28 459h1.65l1.84-.86 1.71-.71c-1.59.33-3.35.95-5.2 1.57zm-2.98 4.66c-2.39.28-4.74.76-7.12 1.14 1.63-.17 3.9-.62 7.12-1.14zM523.62 530l-3.32 3.31c6.03-3.85 3.11-2.55 3.32-3.31zm-322.15-59c4.13 2.44 7.51 4.16 10.45 5.75-4.92-3.14-8.74-5.83-10.45-5.75zm321.06-24.21c2.33 0 3.33-.1 3.28-.32-2.39-.06-3.76.05-3.28.32zM224.22 483c-.7-.48-1.41-.92-2.13-1.38-3.19-1.44-6.38-2.92-10.16-4.92a61.85 61.85 0 0 0 12.29 6.3zM68 481.89c.23.32.54.67.74 1 .17-.04-.19-.44-.74-1zm137 74.04c-1.62.05-4.25-.08-6.74-.15 1.24.11 3.27.22 6.74.15zm-102.15-116c-3.49-.49-.57 0 0 0zm-16.67-5.81c.77 0 1.35-.13 1.46-.34a3.09 3.09 0 0 1-1.46.34zm172.3 60.7l.27.15c-.84-.68-.69-.56-.27-.15zM97.66 438.77c1.3.3 2.8.54 4.43.88-.71-.21-2.09-.46-4.43-.88zm.64.54l-3-.48c-.5.11-.12.26 3 .48z" transform="translate(-6.51 -167.94)"/>
  <path class="cls-7" d="M107.7 440.65c-2-.3-3.84-.64-5.62-1 .67.17 1 .27.76.28zm168.82 102.91c-.19-.16-.41-.34-.61-.52-1.67-.9-2.05-1.11-1.84-.94s1.15.74 2.45 1.46zm235.89-50.3l-.31.26.46-.26z" transform="translate(-6.51 -167.94)"/>
  <path class="cls-7" d="M522.53 485.46a35.65 35.65 0 0 1-10 7.81h5.07c1.69-2.63 3.34-5.21 4.93-7.81z" transform="translate(-6.51 -167.94)"/>
  <path class="cls-7" d="M589 472.26a18.18 18.18 0 0 0 3-5.86 15.2 15.2 0 0 0 .23-7.56 14.88 14.88 0 0 1 .82 6.75 18.21 18.21 0 0 1-1.48 5.45 25.19 25.19 0 0 1-3.9 6.08l-1.16 1.35-.16.2v.05a.1.1 0 0 0 .09.05 16.91 16.91 0 0 0 4-3.33c-.16-.43.22-1.35.85-2.82a27 27 0 0 0 2-6.42 16.89 16.89 0 0 0 .11-4.81 16.47 16.47 0 0 0-1.46-5.08 21.39 21.39 0 0 0-6.06-7.43c-.57-.45-1.14-.9-1.7-1.28l-1.11-.76a2.39 2.39 0 0 0-.64-.35l-.54-.24-3.52-1.51c-1.11-.42-2.15-.71-3.17-1s-2-.63-2.86-.79a34.64 34.64 0 0 0-4.41-.71c-1.13-.08-1.87.08-2.12.4-2-.64-3.94-1.38-5.91-1.94 1.73.35 2 .26 3.76.68a27.3 27.3 0 0 0-6.53-1.6 18.3 18.3 0 0 0-4.24 0 35.74 35.74 0 0 1-4.88.2 61 61 0 0 1-8.46-.82c-5.22-.83-8.85-1.66-5.23-1.62-2-.1-3.94-.13-5.9-.2s-3.93-.11-5.89-.12c-3.41-.31-2.54-.78.86-.46-3-.18-6-.38-9-.5l-4.48-.2-4.48-.12.14-.08c-2.58.34-8.39.95-11.22 1.2-4.54-.47 2.29-.3 1.13-.68-3.31.21-6.62.4-9.93.69-2-.37-1-.77 1.43-1.07a71.32 71.32 0 0 1 9.63-.29 19.22 19.22 0 0 0-10.12-1.06c-3.44.42-8.13.82-18.34.61 3.16-.38 6.34-.63 9.49-.85a38.86 38.86 0 0 0-10.52-.79c-4 .12-8.56.45-14 .62 1.31.09 6.76.12 10.52.49s5.79.93.4 1.77a55.53 55.53 0 0 0-12.84 1.75c-.2-1-5.85-.05-12.88 1.34l.22-1.49a35.53 35.53 0 0 0-6.78 2.16c-1.3.58-2.19 1.15-4.34 2a52.32 52.32 0 0 1-8.66 1.32 18.78 18.78 0 0 1-4-.34c-6.75 1.84-4.29 1.61-2.16 1.48 1.07-.06 2.07 0 1.82.25s-1.76.91-5.67 2.17a95.35 95.35 0 0 0-15 5.28 126 126 0 0 0-15.63 8.41c-7.38 3.6.81-1.49-1.95-.4-1.93 1.55-3.84 3.1-5.67 4.76-1.52.94-1.23.34-1.08 0-2.44 1.92-2.32 2.31-2.59 2.91s-.91 1.43-4.53 4.6c-.55 1.58-5.61 4.69-10.62 9.93l5.37 4.95c.88-.63 2-1.44 3.13-2.17l3.39-2.26c1.11-.78 2.26-1.51 3.34-2.29s2.13-1.54 3.09-2.34c2.56-1-.7 1.42.31 1.47 6.23-4.3 9.21-5.75 11.73-7.26 2.61-1.36 4.81-2.78 10.53-5.64l1.31-.36 1.33-.29 2.65-.58c1.76-.39 3.51-.81 5.3-1.07-2 .22-2.88.22-3 0s.57-.81 1.79-1.41 3-1.36 4.92-2.16l1.52-.61L410 460l3.26-1.07a68.2 68.2 0 0 0-7.08.34l1.74-.55 1.76-.46 3.53-.92 3.54-.91 3.58-.73c1.78 0 .39.67-1.86 1.61 1-.26 1.87-.52 2.57-.73 5.21-.25 2.63 1-.87 2.3-1.77 0-3.55-.07-5.25 0-3.33 1.56-6.34 3.16-5.43 3.82a41.68 41.68 0 0 1 4.48-1.31c-.85.41-1.38.74-.94.79s1.88-.55 4.1-1.38c1.15.34 2.31.72 3.45 1.08l.67-.74 4.61-.44c1.53-.14 3.08-.15 4.62-.23 3.08-.12 6.14-.29 9.27-.24 3.31-.57 6.52-1.24 9.81-1.74s6.67-1.12 10.31-1.52c1.82-.21 3.7-.44 5.67-.61s4-.28 6.19-.39 4.44-.15 6.84-.15 4.94 0 7.62.16c-5.39.75-1.27 1.81-1.66 3.17-5.71-1.85-16.49-.39-27.47-.52 5.75.16 4.48.81 3 1l4.9-.33 4.91-.2c1.64-.06 3.28-.15 4.91-.18l4.92-.07c-.25.55.78.82 2.5 1s4.14.49 6.67.92c-1.84-1.25 1.84-1.39 7-1s11.73 1.22 15.74 1.47c.19.41-.22.73-1.88.76a30.65 30.65 0 0 1-3.5-.21c-1.54-.13-3.47-.36-5.88-.7a31.4 31.4 0 0 0 6.77 1.18 43.21 43.21 0 0 0 5.49 0 30.3 30.3 0 0 1 12.12 1.36c-2.35-.41-3.6-.77-4.59-.55a73.39 73.39 0 0 1 11.17 1.92c3.61.86 6.09 1.74 4.45 1.71l-2.33-.49 12.64 3h.1l-.14.13-.28.25-.56.5-1.12 1-2.23 2-2.2 2-1.09 1-1.64 1.4c-4.27 3.67-7.28 6.4-7.54 7.37-.27-.1.33-3.08.87-4q-9.43 11-19.8 21.36c.63-1.36-1.62-1.56-2.68-2.42s-.91-2.32 4.31-6.28a152.3 152.3 0 0 0-13.79 8.74c2.31-1.12 6.7-1.31 3.77.65-4.6 1.74-6.19 2.32-8 3.14s-3.82 1.76-9.4 3.85c3.54-1.52 1 2.81-4.5 5.48.68-.77-1.57-2 .28-3.27-2 1.54-4.14 3-6.22 4.44s-4.23 2.88-6.39 4.23c3.3-1.89-.25-2.19-3.59-1.56.4 0-.14.26-1.24.74s-2.78 1.09-4.62 1.78-3.87 1.32-5.65 2-3.36 1.07-4.28 1.44c2.06-.44 4.14-.87 6.19-1.42-2 .68-3.75 1.24-5.3 1.79-.77.28-1.49.56-2.17.83s-1.33.5-1.94.74c-1.22.49-2.3 1-3.32 1.48s-2 .9-3 1.36c-3.85 1.86-7.87 3.42-16.37 4.61 2-.84 4.58-3.87-4-3-1.88.87-6 3.06-11.64 5.15a82 82 0 0 1-20.39 5.07l-3-.65-2.94.29-3 .19c-2 .12-3.95.27-5.93.29 1.87-.36 4.55-1 7.67-1.63 1.56-.31 3.23-.76 5-1.15s3.53-.82 5.34-1.31c7.27-1.79 14.86-4.06 20.22-5.46a32.14 32.14 0 0 1-4.53-.15c-.85-.05-2.09.09-6.83.51-3.4-.4 5.07-1.45 7.85-1.87-7.37.69-14.71 1.11-22 1.2.51.71-3.67 1.3-7.87 1.55-2.11.19-4.2.24-5.74.36s-2.5.32-2.31.64a181.34 181.34 0 0 0 23.86-1.73c.27.36-.45.85-1.92 1.41-.74.28-1.67.57-2.76.86s-2.34.53-3.73.78-2.92.52-4.54.67-3.36.3-5.17.41-3.69 0-5.61 0-3.88-.26-5.84-.45c-2-.53-1.13-1.1.12-1.61s3-1 2.81-1.31a22.38 22.38 0 0 1-3.18.08c-1.49-.08-3.31-.21-5.11-.37s-3.56-.49-5-.72a16.93 16.93 0 0 1-2.77-.7c2.2.21 4.41.3 6.6.39-2.09-.5-4-.74-5.89-1-.94-.12-1.86-.22-2.79-.31l-2.78-.35a45.1 45.1 0 0 1-5.87-1.09 41 41 0 0 1-6.71-2.35 28.57 28.57 0 0 1-3-1.25l-1.68-.8a16.88 16.88 0 0 1-1.59-.82c-2-1.1-3.58-1.94-4-1.63 4.53 3.48 4.46 9.07.09 8.84l-3.44-1.59c-1.8-.89-4-2.2-6.31-3.48-1.16-.63-2.3-1.35-3.4-2.05l-3.14-2a49.62 49.62 0 0 1-4.38-3.06c-2.37-2 0-1.65 2.48-1.22s5 .81 3-.84a4.92 4.92 0 0 1-2.1-.34c-1-.31-2.12-.72-2.78-1-3.24-2.12 2-.37-5.47-4.14-2 .68-14.88-8.35-4.09-.78-7.4-3.58-7.49-4.49-15.94-9.16 2.2 2.37-9.2-1.34-16.6-5 .61-.1-.76-1.44-1.43-2.08-14.66-8.35-22.29-13.29-36.26-20.56-1.12-1-7.7-4.84-4.52-3.95a75.32 75.32 0 0 1-8.62-3.37c-7.91-5.29 9.86 4.56 4.1 0-.47.26-3.45-.84-7.11-2.31l-5.79-2.37c-2-.76-3.9-1.48-5.53-2.07 1.42 2 14.4 7 20.84 9.63-.41.84-3.51.32-8.44-1.1-2.46-.72-5.36-1.69-8.6-2.88s-6.87-2.4-10.68-3.88c-3-1.26-4.84-2-5.88-2.5s-1.33-.81-1.3-1c.06-.33 1.38-.17.29-.48-2.81-1.19-5.24-2.17-7.37-3s-4-1.29-5.66-1.75c-3.29-.9-5.73-1.38-8-1.84a73.47 73.47 0 0 1-7.29-1.38c-1.39-.35-2.92-.78-4.7-1.36l-.4-.13c-.28-.09-.37-.11-.57-.19l-.72-.29-1.42-.56-3.23-1.27c-7.27-3.45.35-2.39-1.08-3.72a61 61 0 0 1 6.81 2.13l5.58 2 4.91 1.86c.8.3 1.6.58 2.42.86s1.62.62 2.47.92l-2-.89c-.68-.28-1.38-.52-2.07-.79l-4.15-1.56c1.67.31 4.24.87 6.81 1.62a67.58 67.58 0 0 1 6.89 2.6c-.75-.41-1.92-.95-3.43-1.58l-2.51-1-1.43-.56-1.56-.51-7.12-2.26c-1.27-.41-2.65-.8-4-1.25s-2.73-1-4.15-1.43c-5.66-1.86-11.78-3.49-17.63-5-2.94-.67-5.79-1.42-8.5-2l-7.59-1.72c-3.4-.14-9.2-.64-6.56.27l5.94.78c5.25 1.82-11.31-.45-3.92 1.18-4-.35-8.25-.38-12.86-.69-2.31-.15-4.73-.2-7.25-.41q-1.89-.15-3.88-.35l-4.07-.36-2-1.47a14.58 14.58 0 0 0 4.12.72 57 57 0 0 0 6.33.4 27.69 27.69 0 0 1-4.73-.43l-6.23-.79a49.44 49.44 0 0 0-6.34-.52 16.84 16.84 0 0 0-5 .6c2.62.37 5.23.63 7.83 1.09-2 0-4.12.31-6.32.49s-4.48.4-6.82.58-4.73.51-7.15.68-4.88.2-7.34.34a11.77 11.77 0 0 0 3.71.39 21.92 21.92 0 0 1 5.59.62c-1.52-.44-.72-.71 1.2-.89 1-.09 2.2-.16 3.56-.21s2.85 0 4.31 0c2.92 0 5.72.07 7.18 0 .73-.07 1.13-.12 1.05-.28s-.66-.37-1.87-.64c7.11 2.09 12.42 1.29 21.59 3.76-.12-.24-.92-.53-.67-.63s1.56-.08 5.63.58a15.63 15.63 0 0 1 1.85-.17l.55.1-.45-.11h-.17a21.83 21.83 0 0 1-4.1-1.21 30.63 30.63 0 0 1 4.54 0c1.89.09 4.07.23 6.24.51l6.28.74c1.92.26 3.57.49 4.69.56 4.8 1.14-2.12.12.43 1.1l3.35.23 3.34.33c.47 1.07 12.3 4.58 1 2.51l2.53.57 2.51.64c1.67.44 3.35.82 5 1.31 2.86 1.07 6.27 2.24 9.52 3.38l2.38.83 1.11.39.43.15.57.17.73.21c1.54.44 3 .81 4.24 1.08a55 55 0 0 0 7.22 1.84c1.9.47 2.69.61.56.26l7.76 2.48 3.89 1.24c1.29.44 2.56.93 3.85 1.39v.29c14.91 6.07 31.28 11.85 47 22.07 2.49 1.16 5 2.36 7.92 3.81s6.19 3.19 10.15 5.54l1.16 1.62c3.17 1.55 7.7 4.3 11.82 6.77s7.84 4.62 9.39 5c5.5 5.75 29.65 17.42 40.93 23.45l.94-.8c2 1 3.85 2 5.91 2.87s4.12 1.76 6.26 2.65 4.65 1.56 7.1 2.34c2.36.6 4.78 1.26 7.42 1.88l-.36-1.14c4.56.91 10.28 2.68 16.83 4.34a110.5 110.5 0 0 0 21.47 3.43c-1 .38-4.85-.09-7.5-.56 8.84 2.12 18.44 1.78 27.52.85s17.82-2.46 25.81-2.62a55.33 55.33 0 0 1 9.51-1.28 9.44 9.44 0 0 0-1 .2l1.61-.23c1.75-.09 3.56-.15 5.51-.28-1.67 0-3.27 0-4.65.15 1.5-.23 3.4-.55 5.46-.93s4.42-.94 6.68-1.46l2.16.61 1.05-.27c2.29-.32 3.16-.65 3.13-.95s-.94-.48-2.22-.61c1.12-.33 2.18-.71 3.14-1.09s1.85-.74 2.61-1.08a8.24 8.24 0 0 0 3.56-.36 43 43 0 0 0 4.3-1.46c1.48-.59 3-1.19 4.49-1.64a14.93 14.93 0 0 1 4.24-.84 43.46 43.46 0 0 1 4.4-2.35c2.12-1 4.68-2.29 7.19-3.6s5-2.71 6.85-3.94 3.23-2.32 3.55-3c.25.15 1.5-.36-.68.77 2.31-1 4.57-2.18 6.75-3.33a51 51 0 0 0 6-3.8l2.54.09q4.31-3.59 8.47-7.31c6.08-2.89 8.68-4.05 3.66.48 6.34-5 8.89-7.06 11.26-8.86a115.4 115.4 0 0 0 9.47-8.14v1.11c2-1.46 4.31-3.6 6.5-5.55l1.61-1.41c.65-.56 1.31-1.1 1.91-1.58a26.77 26.77 0 0 1 3.23-2.27c1.58-1 3.67-2.51 6.11-4.42 1.22-1 2.54-2 3.94-3.17l2.17-1.8 1.14-1 .58-.49.29-.25v-.18c-5.88-1.55-12.93-3.34-20.68-5.15l-5-1.12c-1.42-.32-2.88-.6-4.35-.91-2.93-.62-5.94-1.16-9-1.74-12.15-2.22-24.78-3.9-35.32-5.27 2.62 1.51-.61.95-4.67.3s-9-1.29-9.55-.26c-1.61-.66-5.54-1.11-1-1.52-7.21.05-12.61-.14-17.47-.21a58.69 58.69 0 0 0-13.92 1.34c-1.68-.53 3-1.07 1.55-1.35-1.15.2-4.54.78-6.06.5s2.07-.63 4.34-1c-1.84.12-3.47.23-4.93.4s-2.75.41-3.86.63a27.07 27.07 0 0 0-5 1.35 5 5 0 0 0-3.19 3c-7.51.18-11.2 1.16-16.19 3.42a17.09 17.09 0 0 1-3.39 0c-.16-.09 0-.26.83-.56.4-.15.94-.34 1.67-.56l1.22-.37 1.53-.36a157 157 0 0 0-17.27 4.52c-7 2.4-13.1 5.33-13 6.08a24.48 24.48 0 0 0-4 1.74 33.13 33.13 0 0 0-3.64 2.13c-4.69 2.44-7.32 4.11-9.84 5.7-1.24.83-2.46 1.64-3.82 2.65-.68.52-1.41 1-2.19 1.68s-1.6 1.29-2.61 2.22l4.41 4.06 1.29-1.56-1.44 1.44-4.13-3.8c.31-.26.59-.47.87-.67-.17.31-.36.62-.59 1l3.54 3.26a13.61 13.61 0 0 1 1.66-2.75 28.72 28.72 0 0 1 2.55-2.67c1-.9 2.14-1.84 3.4-2.89l4.3-3.42-.09.29c1-.71 2-1.33 2.87-1.86l2.35-1.46c1.43-.82 2.52-1.5 3.41-2 1.8-1 2.69-1.65 3.6-2.22a38.07 38.07 0 0 1 3.65-2 86.37 86.37 0 0 1 9.34-3.78l-1.43-.55c.4-1.42 4.65-2.94 10.19-4.39s12.31-2.87 17.85-4.8l-4.24.55c3-1.25 7.51-1.68 12.06-1.8s9.1 0 12.26-.43c1.4-.06-2.09.71-4 1.25 4.14-.49 6.32-.78 7.47-1.05s1.24-.52 1.2-.8c-.08-.55-.74-1.26 5.4-2.37 2.38.44-2.63 2.28 5.63 1.3 2.09 0 8-1.31 14.88-2.26s14.81-1.46 20.54-.66c-2.52-.6-5-1.2.78-1.6 4.47-.08 10.49.64 16.39 1.26 2.95.31 5.87.63 8.56.74a35.72 35.72 0 0 0 7.2-.15c1.12.24 1.53.45 1.56.59 1.71 0 3.94.14 6.4.26l7.73.52c2.59.22 5.1.39 7.22.52a37 37 0 0 0 4.91.14c2.76 2.37 13.29 3.61 22.21 6.38l3.08 1.16a4.4 4.4 0 0 1 1.12.59c.44.26.81.57 1.21.84a10.21 10.21 0 0 1 3.09 3.52 3.92 3.92 0 0 1 .32 2.69c-.2.63-.56.91-1 .82a8.16 8.16 0 0 1-1.21 3 14.73 14.73 0 0 1-2.39 2.84l-.35.32-.34.34-7.36 7.85.14-.63c-2.41 2.31-4.4 4.29-6.06 6s-3.07 3.13-4.22 4.42c-2.32 2.56-3.77 4.47-5.29 6.31-2.48 1.87-1 .14-.92-.16-1.9 1.54-3.55 2.94-5.08 4.16l-4.16 3.27c-2.47 2-4.52 3.58-6.43 5.18-1 .8-1.88 1.59-2.82 2.43l-3 2.58-3.42 3c-1.25 1.11-2.66 2.28-4.23 3.62l-2 .06a17.12 17.12 0 0 1-2 1.52c-.94.6-2.11 1.32-3.46 2.13-2.69 1.66-6.21 3.54-10.1 5.68-7.84 4.2-17.41 8.92-25.86 13.42.12-.19.39-.55 1.7-1.33q-1.78 1-3.67 1.88c-1.27.59-2.57 1.17-3.9 1.74-2.64 1.18-5.43 2.18-8.22 3.21-5.62 2-11.36 3.67-16.74 5.08-10.74 2.89-19.9 4.81-23.36 7.55-4.56 1.3-9.18 2.41-13.83 3.44a61.85 61.85 0 0 1 7.44-.79c.75.05.12.4-.85.83-1.94.81-5.25 1.87-1.42 1.59-7.21 1.49-18.88 1.26-10 0h1.41c1.49-1.27-4.22-.64-10.27-.21s-12.46.64-12.24-.07c-4.53.2-8.91.11-13.4-.09s-8.92-.63-13.35-1.15a254.13 254.13 0 0 1-26.16-4.41 222.61 222.61 0 0 1-24.95-7.1 125.63 125.63 0 0 1-22.77-10.36l2.51 3.29-5-2.89-4.73-3.26a8.81 8.81 0 0 1-1.28-1.33c-.26-.35-.31-.57-.06-.55a6.12 6.12 0 0 1 1.68.78c.87.49 2.09 1.27 3.75 2.42-2.8-2.88-12.12-7.65-12.51-7.34-6.86-5-5.24-4.46-2.41-3.05s6.85 3.73 4.69 2.25l-6-3.84 1.23 1c-2.57-1.34-4.09-1.82-6-2.77-1-.46-2-1-3.44-1.82s-3.1-1.76-5.3-3.12c-5.45-3.64-2.38-2.57-4.56-3.94.07-.09-.65-.58-3.39-2-4.37-2.56-8.75-5.1-13.16-7.57l4.68 4.07c-6.18-2.72-12.44-6.95-7-2.3-3.94-3.47-16.28-10.36-28.41-16.55l-8.91-4.48-4.16-2.06-2-1-1-.49-1-.4c-5-2.11-8.75-3.75-10.14-4.53-2.28-.69-4.5-1.51-6.77-2.23s-4.56-1.5-6.89-2.33-4.71-1.71-7.18-2.65l-7.82-2.7c2.64 1.17 3.78 3.08-5.56-.24 1.09-.42.58-1.07-.91-1.88a50.69 50.69 0 0 0-6.86-2.62l-9.05-3a45.12 45.12 0 0 1-7.55-3c3.32 1.61-3.55-.2-10.06-1.31-6.47-1.31-12.51-2-7.12 0-8.15-1.67-.29-1.19-6.41-3-9.91-1.05-20.75-2.63-32.37-3.31l-2.19-.12-1.12-.06c-.51 0-1-.05-1.57-.06h-6.49c-2.24-.05-4.26.19-6.4.31s-4.19.37-6.31.56l-3.21.36h-.31v.07l.21.33.43.66.87 1.33 3.52 5.37 3.6 5.43c1.3 1.84 2.71 3.69 4.18 5.51.34.12-.3-1.11-.33-1.59 0-.24.11-.31.55 0a9.78 9.78 0 0 1 .91.81l1.33 1.35c1.09 1.89 2.11 3.85 3.27 5.7l3.48 5.6a13.35 13.35 0 0 0 2.19 1.98c.68.45 1.33.8 2 1.27 1.38.94 2.95 2.37 5.49 6.1-.62-1.15-1.53-2.86.77-.56a182.39 182.39 0 0 0 27.07 24.49 199.4 199.4 0 0 0 31.73 19.09A221.3 221.3 0 0 0 159 548.65c5.94 1.8 12 3.2 18 4.57 6.09 1.21 12.19 2.42 18.36 3.22-6.64-1.26-2.16-1 2.93-.67-3.31-.39.13-1-.49-1.52a176.21 176.21 0 0 0 20.64 1.36 21.44 21.44 0 0 1 5-1.08c2.27-.37 5-.65 7.62-1.11s5.23-1 7.27-1.45a11.14 11.14 0 0 0 3.94-1.59l-3.16.9c-1.06.3-2.12.52-3.19.79 4.11-1.67.89-2-3.1-2.19-2-.2-4.22-.32-5.86-.64s-2.72-.74-2.48-1.3a28.09 28.09 0 0 1-8 1.11c-3 0-6.29-.17-9.74-.52-6.92-.63-14.43-1.61-22.22-1.28-1.65-.47-.91-.53 0-.57s2.06-.12 1.2-.46a32.79 32.79 0 0 1-6.88-.16c-1.37-.16-2.87-.46-4.56-.8l-2.69-.58c-.94-.23-1.93-.52-3-.81h1a149 149 0 0 1-28.57-9.14c-2.07-.94-4.19-1.82-6.33-2.88s-4.34-2.14-6.65-3.34-4.7-2.56-7.26-4l-3.78-2.37c-1.35-.82-2.78-1.63-4.19-2.59.39.65.77 1.33 1.18 2a69.11 69.11 0 0 1-8-5.89c-3.22-1.27.12 1.18 3.72 3.39 1.79 1.12 3.55 2.32 4.55 3s1.14 1.07-.43.68a60.25 60.25 0 0 0-7.92-6c-1.75-1.29-3.69-2.67-5.7-4.08-1-.69-2-1.45-3-2.22l-3-2.29c-1-.78-2-1.5-3-2.3l-2.79-2.35c-1.8-1.56-3.55-3-5-4.42-2.87-2.85-5-5.14-5.5-6.5-6.44-6.37 1 2.75-5.4-3.63l-1.24-2.15c-.75-.33-1.46-.72-2.19-1.08-4-4.48-5.41-7.21-5.09-7.78.87 1.15 2.89 2.9 4 4a41.03 41.03 0 0 0-2-2.44l-1.13-1.3-1.15-1.39c-1.56-1.86-3.25-3.77-4.86-5.55s-3-3.54-4.15-4.92l-.71-.84a2.11 2.11 0 0 1-.3-.45l.4.68.22.36.07.11.16.22.31.44 2.52 3.56-3-3.65-1.53-1.85c-.88-1.13-1.75-2.34-2.64-3.55l-.33-.46-.17-.23a1.58 1.58 0 0 1 .26 0c.37 0 .74-.09 1.11-.11.75-.06 1.5-.1 2.26-.13s1.52 0 2.28 0h1.16l2.28.06c13.57.34 27.06 2.09 39 3.68l-1.71-.8c2.29.25 4.22.59 5.9.91s3.1.59 4.35.86a60.64 60.64 0 0 1 6.23 1.6c1.88.58 3.8 1.18 6.49 1.93l4.69 1.26c1.8.53 3.87 1.11 6.32 1.78l-.74-.09c2 .33 4.34.82 6.83 1.43s5.08 1.52 7.71 2.41c-5-1.07 8.76 4.14 2.19 2.61 2.4.7 4.37 1.18 6 1.71l3.82 1.18a35.16 35.16 0 0 0 3.81 1 68.91 68.91 0 0 1 9 1.73l2.5 2c2.22.53 3.46.75 5.32 1.3.93.28 2 .63 3.46 1.16l2.46.92c.46.18 1 .36 1.47.58l1.61.74a15.48 15.48 0 0 0-2-.69c-.41-.08-.58-.06-.58 0s.64.63 1.19 1.1 1.16 1 1 1.11-1-.09-3.11-.77c.29.16.6.3.86.46l.79.47 1.65 1q1.63.93 3.18 1.76c2.06 1.12 4 2.12 5.86 3 3.7 1.82 7 3.3 10 4.62 5.92 2.68 10.49 4.82 14.18 8.3 4.85 1.33 1-1.18-3.57-3.66s-9.64-5-7.09-4c-3.74-2.8 8 2.22 13.79 5.64 3 1.64 5.21 3.67 8.52 6.34 1.67 1.32 3.6 2.81 6 4.51 1.22.85 2.58 1.74 4.09 2.68s3.16 2 5 3c-1.46-.87-1.65-.78-3.11-1.64a83 83 0 0 0 8.33 4.86c1.46.79 2.94 1.62 4.46 2.55a48.74 48.74 0 0 1 4.53 3.27 21.6 21.6 0 0 1 6.12 3.17c1.8 1.17 3.3 2.07 4.3 1.73-2.16-1.44-4.4-2.79-6.59-4.19s-4.48-2.68-6.71-4c1.94 1.09 3.9 2.07 5.94 3.08s4.1 2.11 6.31 3.32 4.45 2.68 6.93 4.36c1.28.84 2.61 1.74 4 2.72.7.48 1.37 1 2.13 1.5l2.31 1.48a22.83 22.83 0 0 1-3.46-1.33c-1.48-.77-3.17-1.7-4.54-2.47a28.22 28.22 0 0 0 2.64 2 22.91 22.91 0 0 0 2.78 1.69 45.55 45.55 0 0 1 5.75 3.35c-.5.26-1.83-.24-3.73-1.14-.94-.45-2-1-3.2-1.65s-2.36-1.53-3.64-2.38c-2.66-1.74-5.09-3.52-7.57-5.19a64.78 64.78 0 0 0-7.14-4.11 27 27 0 0 0 3.77 2.69l2.35 1.44 2.21 1.41c2.76 1.77 4.5 3 2 2.38a18 18 0 0 1 2.72 1.05 31.31 31.31 0 0 1 2.82 1.53c1.87 1.22 3.93 2.37 6.09 3.69a57.08 57.08 0 0 0 7.06 3.73 41 41 0 0 0 8.25 2.8l-1.12.68c1.82.64 5.7 1.44 9 2.61l-6.44-.81a54.86 54.86 0 0 1 6.91 2.06c2.23.75 4.42 1.54 6.6 2.37s4.36 1.53 6.56 2.23a43.17 43.17 0 0 0 6.75 1.57 71.2 71.2 0 0 1-8.71-2.34c-1.37-.49-1.51-.72-1.3-.88.42-.33 2.19-.38-1.65-1.81 2.92.61 5.31 1.12 7.3 1.63s3.61.86 5 1.27 2.45.79 3.42 1.18 1.85.73 2.74 1.11a43.83 43.83 0 0 0 6.73 2.4c1.55.4 3.39.83 5.69 1.26s5 .8 8.37 1.13a54.2 54.2 0 0 1-7.34-1.3c-2.18-.55-3.19-1.06-.36-.86l8.06 1.54c2.67.48 5.09 1 6.62 1.43a52 52 0 0 0 7.2.3c.7-.08.05-.27-.92-.49-1.94-.45-5.1-1.13-1.33-1.13a18.55 18.55 0 0 0 7.57.61l3.92-.48c1.45-.18 3.09-.39 5-.49l.08 1.07a60.25 60.25 0 0 0 9.62-.44 6.74 6.74 0 0 0 2.82-.89c1-.67 1.83-1.11 10.84-1.69-2.46.81-5 1.53-7.46 2.26q4.7-.6 9.37-1.38l-1.79 1.44c5.08-1 8.38-1.74 11.69-2.28l5.16-.82c1.86-.27 3.93-.62 6.42-1-2.46-.29.92-2.07 9.51-4.25 3-.44 2.26 0 2.27.18s.8.06 6.84-1.74a32.63 32.63 0 0 1-4.33 2.14 23.18 23.18 0 0 1-6.61 1.34c-.46.48-2.59 1.29-3.08 1.77 6.6-.72 16.07-4 20.42-5.41-1.7.48-3.74 1.05-4.82 1.22 5.73-2.25 11.38-4.61 16.91-7.23 2.85-.61.82.48-1.21 1.55 3.46-1.36 5.67-2.78 10.68-4.91-1 1.36-.3 2.07-7.4 5.29 2.67-1.21 5.34-2.42 8-3.69s5.27-2.54 7.84-3.94c.61-.07 2.76-.77 4.52-1.3s3.1-1 2.15-.3a103.18 103.18 0 0 0 15-8.46l4.06-2.63 4.1-2.71c1.37-.9 2.78-1.76 4.16-2.63s2.76-1.73 4.16-2.53a34.92 34.92 0 0 1 3.71-3c2.5-1.68 5-3.21 7.44-4.85s4.87-3.25 7.28-5 4.85-3.62 7.3-5.69 4.94-4.32 7.43-6.9l7.14-4.19c7.95-7.9-9.33 6 3.86-7.11 2.34-2.31 3.68-3.72 4.59-4.44s1.28-.84 1.49-.73c.43.21.18 1.25 2-.22 1.07-1.34 2.34-3 3.72-4.81l2.23-2.87 2.39-2.94.08-.11.09-.1a26.47 26.47 0 0 0 3.08-3.56 22 22 0 0 0 2.52-4.43 16 16 0 0 0 1.29-5.73 15.36 15.36 0 0 0-1.11-6.24 14 14 0 0 1 1.44 4.22 14.35 14.35 0 0 1 0 4.24 19 19 0 0 1-2.8 6.94zm-124.63-35.74c2.63-.49 8-1.52 10-1-3.03 1.42-5.37.95-10 1zm-31.19 21.74a17.25 17.25 0 0 1-3.57.51c-1.4.1-3 0-4.7.12a28.5 28.5 0 0 1 3.88-.47c1.39-.09 2.85-.15 4.39-.16zm-292.54-10.78h.28c5.25 2.18 3.4 1.39-.28 0zm-11.33-3.64c-1.2-.15-1.16 0-.7.29a27.07 27.07 0 0 1 6.39 1.46c-.74-.48-2.16-1.15-5.69-1.75zm118.8 72.84l1.92 1.44c-4.81-2.45-3.36-1.93-1.92-1.45z" transform="translate(-6.51 -167.94)"/>
  <path class="cls-7" d="M410.7 463.11a1.81 1.81 0 0 1-1.21-.35c-.94.38-.91.58 1.21.35zm113.53 66.33l-.36.22a1 1 0 0 0-.25.39zM302.9 514.59a43.36 43.36 0 0 1 4 2.69c.23-.19-.69-.82-4-2.69zM66.55 437.37l3.81-.09 3.81.06c-1.84-.07-3.09-.18-4.11-.31s-1.81-.19-2.74-.29c.16.26 1.61.64-.77.63zM6.52 447.41a14 14 0 0 0 .94 3.41l.37-.45a16.38 16.38 0 0 1-.92-5c0-.4-.05-.52-.17-.22a6.73 6.73 0 0 0-.22 2.26zm52.96-13.69c-.62-1-5.47-.44-10.86-.12h1c-1.62 1.3 4.13.64 9.86.12zm-12.12-.05c-1.67.08-3.35.31-5 .37-.58.57 2.04-.1 5-.37zm67.03 7.48c-2.45-.71-1.78.84-3.12.21-1.49.3 2.71.75 5.59.88 1.44 0 2.53.09 2.42-.08a3.33 3.33 0 0 0-1.19-.39c-.78-.16-1.98-.36-3.7-.62zM55 430.84l2 1.05 1.52-.5 1.52-.43c-1.66-.12-3.33-.09-5.04-.12zM97.94 434c-2.87-.45-5.73-1-8.61-1.3.11.2-1 .21-2.36.17 5.35.39 11.13 1.48 10.97 1.13zM87 432.83a48.89 48.89 0 0 0-7-.39c1.49.02 4.73.35 7 .39zm-20-2.34l2.58.26c2.05.07 4.1.25 6.15.37-2.94-.26-5.84-.54-8.73-.63zm120.5 29.38l8.8 3.6c1 0-1.22-1.23-4.52-2.54-2.19-.68-5.46-1.99-4.28-1.06zm-25.77-13.31a16.89 16.89 0 0 1 3.7 2.24l.73-1.21zm26.17 9.79c1 0 13.13 4.69 2-.21-.99-.14-10.01-3.45-2 .21z" transform="translate(-6.51 -167.94)"/>
  <path class="cls-7" d="M307.78 356.53l-2.21-.97-.65 2.2 2.86-1.23z"/>
  <path class="cls-7" d="M436.92 526.57c-5.31.78-5.86 1.18-6.33 1.61s-.82.78-5.87 1.19c-2.52.92 8.26-.67 5.67.18 6.41-1.63 9.75-2.22 6.53-2.98z" transform="translate(-6.51 -167.94)"/>
  <path class="cls-7" d="M430.39 529.55c-1.06.25-2.18.53-3.36.85 1.91-.4 2.81-.67 3.36-.85zm-197.93 25.64c1.26-.1 2.52-.27 3.77-.44s2.52-.31 3.78-.55c-1.66.14-3.32.16-5 .25-.81.28-1.68.55-2.55.74zm13.77-4.87l2.15.87c1.33-.91 2.63-1.84 3.92-2.75-1.6.64-4.72 1.89-6.07 1.88zm197.3-114.06l-.5.44c1.2.2 2.92-.09 6.38-.53-1.96 0-3.92.05-5.88.09z" transform="translate(-6.51 -167.94)"/>
  <path class="cls-7" d="M537.25 269.32l-1.72-.26 3.03 1.73-1.31-1.47z"/>
  <path class="cls-7" d="M572.73 493.46c2.48-2.4 5.19-5.43 7.64-7.88-5.13 5.52-9.44 7.35-7.64 7.88z" transform="translate(-6.51 -167.94)"/>
  <path d="M355.89 485.74s74.61-3.68 118.85-86.65c34.46-67.47 30.18-128.84 30.18-128.84s-1.84-18.55-24.67-10.8C425 278 371 320 343.86 377.3c0 0-25.49 54.41-23.86 122.05 21.2-87.81 59.33-167.35 153.92-205.86-.4 69.92-38.52 169.23-118.03 192.25z" transform="translate(-6.51 -167.94)" fill="url(#linear-gradient-2)"/>
  <path class="cls-7" d="M358.72 490.53c-1.69.46-.83 1.16-1 1.41 2.71-1.11.85-1.62 1-1.41zm25.46-13.25l-.25.57c.54-.47 1.08-.93 1.6-1.42l1.53-1.51c-.93.82-1.87 1.63-2.88 2.36zM405.83 462a6.1 6.1 0 0 0-2.4 1.22 30.56 30.56 0 0 0-2.83 2.37c-1 .89-2 1.91-3.07 2.75a23.42 23.42 0 0 1-3.2 2.18l-.84.15-1 2.29c1.15-.87 2.37-1.84 3.6-2.83s2.48-2 3.62-3c2.29-2.13 4.5-3.93 6.12-5.13zm12.76-7.26c-.53.11-.09-.55 0-.62a26.08 26.08 0 0 1-2.48 2.85c.28-.18.38-.22.55-.31.34-.43.97-.95 1.93-1.92z" transform="translate(-6.51 -167.94)"/>
  <path class="cls-7" d="M416.62 456.66c-2 2 1.7-.93 0 0zm8.65-9.84c-.68 1.06-1.32 2.15-2 3.19.81-.32 3-2.82 2.42-1.7 2.25-3.13 1.45-2.75-.42-1.49zm1.4-3.43l-1.06 1.61c.33-.16.7-.51 1.06-1.61zm-3.34 5.03l2.28-3.42c-.55.24-1-.05-1.08 1.54-.14-.54-.32.34-1.2 1.88zm-1.74 1.58c-1.68 1.29-3.67 3.09-1.54 0-4.67 5.29-3.17 5.33 1.54 0zm-15.83 9.86l-2.35 1.44c-.46.67-1 1.26-1.49 1.9.81-.88 4.29-3.08 3.84-3.34zM440 428.83c-.15-.38-1.44.54-1.95.53a43.8 43.8 0 0 1-1.24 2.47c1-.99 2.61-3.12 3.19-3zm-2 .53l1.77-3.73c-2.06 3-2.2 3.71-1.77 3.73zm-12.26 12.41l-3.41 5.87c1.41-2.31 2.86-4.56 4.2-6.88-.26.34-.53.68-.79 1.01z" transform="translate(-6.51 -167.94)"/>
  <path class="cls-7" d="M441.71 247.55l-.45 2.43.99-4.21-.54 1.78z"/>
  <path class="cls-7" d="M453 406.28c-.21 1.83 2.06-1.61 1.58.2a31.52 31.52 0 0 0 2.19-7.18 23.34 23.34 0 0 1-3.77 6.98zm4.67-10.58c-.33 1.11-.6 2.3-.88 3.6a19.68 19.68 0 0 0 .88-3.6zm-14.07 24.14a5.78 5.78 0 0 0 2.5-2.25l-1.65.89z" transform="translate(-6.51 -167.94)"/>
  <path class="cls-7" d="M444.39 418.5h.06c.93-1.47 1.54-2.51 1.8-3-.25.4-.76 1.31-1.86 3zm-1 1.68l.21-.34c-.16.08-.24.16-.21.34zm-10.48 13.69c1-2.26 3.37-6.59-.08-3.18-.46 1.76 1.52-.2.08 3.18zm8.43-12.62c-.79 1.2-1.64 2.36-2.5 3.51.26.07 1-.38.56.75.68-1.4 1.35-2.81 1.94-4.26z" transform="translate(-6.51 -167.94)"/>
  <path class="cls-7" d="M435.67 251.35l-.84 1.96.9-1.32-.06-.64z"/>
  <path class="cls-7" d="M453.71 402a33.94 33.94 0 0 1 2.19-5.84c-1.23 2.15-2.39 4.42-3.44 6.6.09.47.12 1.68 1.25-.76zm-4.42 8.1c0-.12.12-.27.15-.39-.19.19-.31.35-.15.39zm15.06-34.89l-.29.28a1.55 1.55 0 0 1 .13.13zm-12.25 27.88a9.88 9.88 0 0 0-1.53 3.73c.55-1.28 1.16-2.61 1.88-4-.05-.22-.12-.28-.35.27zm7.69-13.39c-.57.81-1.16 1.75-1.76 2.75.65-.75 1.85-2.34 1.76-2.75zM450 409.28c0 .09-.05.17-.09.27.42-.45.3-.43.09-.27zm0 0a18.29 18.29 0 0 0 .61-2.46c-.45 1-.84 2-1.13 2.89a3.1 3.1 0 0 1 .52-.43z" transform="translate(-6.51 -167.94)"/>
  <path class="cls-7" d="M460.73 366.83c.73.56.07 5.4-2.28 8.94-.76 4 2.85 2.59 5.62-.27-.16-.12-.32-.22-.33-.8a24.93 24.93 0 0 1 .56-3.74c-.85 1.29-4.21 8.45-3.73 4.84 1.48-5.38 1.79-4.2 3.11-6.62-.88.92-.71-.89-.56-2.84s.2-4.05-.73-3.71c-.26 1.61-.6 3.19-.92 4.78-.27 0-.1-1.79-.74-.58zm.42 16.22l-.54 1.67a39.34 39.34 0 0 1 3.3-5.23c.59-2.9.49-3.58.28-3.86-1 2.69-2 5.39-3.13 8z" transform="translate(-6.51 -167.94)"/>
  <path class="cls-7" d="M457.6 392c-.34-1.64.95-5.63-1-3.68-2 4.7-.68 3.59-1.52 6.57 3.07-7.68-.46 2.4 2.42-2.87a44.56 44.56 0 0 1-1.57 4.2c.75-1.3 1.42-2.58 2.13-3.75l-.13.15c-.25.28-.37.36-.14 0a1 1 0 0 1 .05-.17 1 1 0 0 1-.18-.49c1.14-2.13.38-.25.18.49 0 0 0 .12.09.15l1.41-3.92c.46-1.31.87-2.64 1.3-4-.39.79-.77 1.7-1.23 2.87zm-23.96 33.93c.21-.16.26-.12.33-.09.19-.51.23-.72-.33.09zm2.36-2.48a6.83 6.83 0 0 1-1.32 2.76c-1.16 1.24-.38-.26-.69-.37-.42 1.11-1.71 3.78.72 1l.21-.56a36.6 36.6 0 0 1 3.48-3.64c1.09-1 1.81-1.62 1.73-1.32a12.61 12.61 0 0 0-4.13 2.13zm11.32-15.53l2.71-6.31-2.33 2.72.52.07c-1.94 3.37-1.01 2.91-.9 3.52zm17.75-33.3l.64 1.2v-4.25c-.23 1.02-.41 2.04-.64 3.05z" transform="translate(-6.51 -167.94)"/>
  <path class="cls-7" d="M461.28 198.09l.74.59.18-2.44-.92 1.85z"/>
  <path class="cls-7" d="M355.22 347l.93-1.84a18.43 18.43 0 0 0-.93 1.84zm-7.93 12.51l.19.53c.14-.71.13-1.04-.19-.53zm13.16 22.07c-2.24 2.08-5.06 4.28-4 4.48l1.3-.28a20.13 20.13 0 0 1 2.7-4.2zm-40.13 93.53l-.33.83.83 2zm-3.83-2.34l1-3.81a31.05 31.05 0 0 0-1 3.81zm94.07-183.96l1.36-2.2c-3.04 2.2-1.41 1.63-1.36 2.2zm44.44 7.38a46.55 46.55 0 0 0-5.94 2.41c3.02-.93 5.57-1.35 5.94-2.41zm-94.37 61.22c.51-1.08.63-1.62.43-1.7-.54 1.11-.77 1.78-.43 1.7zm81.94-55.26c.44-.14.85-.32 1.29-.47.78-.53 1.55-1.07 2.4-1.58s1.78-1 2.81-1.5a22.91 22.91 0 0 0-3.4 1.32 13.4 13.4 0 0 0-3.1 2.23zm10.18 137.98c-.17.13-.36.31-.53.42.05.14.25-.08.53-.42zm-74.45 36.73c.74-.3 2-.65 3.13-1.08a25.74 25.74 0 0 0-3.13 1.08zm98.31-145.94c-.27 1.89.05.32 0 0zm-5.46 8.37c0-.41-.1-.74-.31-.83a1.24 1.24 0 0 1 .31.83zm-41.42-22.1l-.14.09c.57-.16.48-.13.14-.09zm45.95 16.49c.24-.69.48-1.48.7-2.36-.14.38-.38 1.09-.7 2.36zm.51-.3l-.38 1.63c.12.26.26.07.38-1.63zm.81-5.1a27 27 0 0 1-.61 3c.13-.36.21-.5.22-.4.07-.52.22-1.29.39-2.6zm30.08-31.52c0 .12-.07.26-.13.4.23 1.93.24 1.09.13-.4zM347 429.45v-.21l-.14.24zm-1.8 6.4a10.77 10.77 0 0 1 1.73-6.38l-3.41 1z" transform="translate(-6.51 -167.94)"/>
  <path class="cls-7" d="M377.14 319.32l-3.93 3c2.92-5.25 6.21-8.05 2.19-5.53.43.65-.14 1.85-1.22 3.32-.54.74-1.2 1.55-1.92 2.39l-1.13 1.29-1.13 1.32c-3 3.67-5.94 7.34-5 8.53-.85.68-1.62 1.42-2.44 2.14.57-.71.52-.94 1.09-1.64-2.44 2-2.7 3.3-3 4.8a11.27 11.27 0 0 1-.72 2.57 11.64 11.64 0 0 1-.89 1.67c-.4.61-.89 1.29-1.48 2.1-1.73 2.17-3.17 3.54-2.41 1.76l-2.81 5.56c-1 1.46-1.25.82-.2-.64l-1.25 2-1.08 2.04-2.29 4.13v-.11c-.25 1.41-1.22 4.36-1.6 5.83-1.47 1.92.26-1.22-.35-.86l-1.72 5c-1.66 1.54-.39-2.67 1.39-5.83a5.83 5.83 0 0 0-3.3 4.28 21.37 21.37 0 0 1-1.19 3.31 24 24 0 0 1-1.24 2.32c-.26.44-.55.86-.88 1.45s-.64 1.06-1 1.64c.29-.81.53-1.56.88-2.46l1-2.3a9.9 9.9 0 0 0-2 1.88l-.51.72-.4.63c-.26.43-.52.88-.77 1.35l-1.57 3c-.55 1.08-1.18 2.23-2 3.45.52-.52 2.15-2.9 3.55-4.43s2.46-2.2 1.71.57a17.68 17.68 0 0 0-2.24 6.38c-1-.35-1.85 2.52-3 6.06l-1.26-.71c-.93 4-.17 3.88-.29 6.33-1.5 4.21-2.84 4.77-4 5.51-2.24 6.84 3.09-4.24 1 4-.55 1.39-1 2.7-1.39 4s-.65 2.57-.91 3.88c-.5 2.64-.92 5.45-1.28 9-1.42 3.94-.68-.91-1.42.45l.27 3.85c-.23.87-.51.51-.64.33-.27 3.12 1.32.56.72 5.4.64.8-.41 3.12-1.56 6.05s-2.17 6.51-1.79 9.62c-.64 1.41-.75-.84-1.37-.48-.08 2.09 0 3.6 0 4.77v2.83c.07 1.61.17 3 .56 6.5l-1.47 5.66c1.45-4.14 2.2 1.4 2.86 6.15.61-1.46 1.2-2.68 1.48-3.52 0 1.25 0 2.5.08 3.75l.21 3.75c-.27.89-.73.11-1.27-1.15.09.52.19 1 .28 1.39-.65 2.65-1.41 1.23-2.11-.74.32-.9.66-1.8 1-2.66-.81-1.91-1.53-3.72-2.42-3.4a14.94 14.94 0 0 1 .19 2.51c-.22-.5-.4-.83-.56-.62s.12 1.06.42 2.32l-1.67 1.64.61.45-.72 5c-.25 1.65-.49 3.31-.63 5 .79 3.56 1.77 6.85 2.64 10.62l4 17.29.3-16.83a71.87 71.87 0 0 1 1.44-13.95c.42 3 1.69 1.06 3 1.56-2 2.35-1.63 7.56-2.85 12.66l-7.3 30.64-.24-31.44v-1.39a9.84 9.84 0 0 1-.14 1.39l-6.7 32.68 14.47-31.85c.58-1.27.89-.64.92 0 .4-3.41.76-6.84 1.21-10.25 1 .51 1.37-1.89 2.5-4.35-2.69 1.37.55-7.76 1.09-11.94.8 0 1.21 1.12-.31 6a9.12 9.12 0 0 0 1.28-6.3 9.19 9.19 0 0 1 1.15-6.27c-.36 1.19-.64 1.8-.42 2.38.18-3 2.86-9.58 3-7.79l-.36 1.18 2.38-7 1.28-4c.44-1.34.87-2.67 1.26-4s.74-2.54 1.05-3.69.6-2.21.8-3.14c.4-1.86.51-3.19.18-3.65a7.62 7.62 0 0 1 1.93 2.44c-.14-2.67-.2-5.32-.26-8l-.08-4v-4c1 1.83 6.51-1.17 4.65 5.43a30.46 30.46 0 0 0 3.33-7.79c-.78 1.1-3.48 2.09-2.9.34 3.74-3.81 2.32-2.78 6.35-7.69-1.2 1.64-2.52-1.45-1-4.27.12.61 2.37.89 2.1 2 .4-2.71.82-5.44 1.34-8.14-.52 2 1.72 1.29 3.16.08-.41.24.39-1.25 1.39-3s2.3-3.83 2.71-4.79l-2.14 2.6a19.56 19.56 0 0 0 2.25-4.75 23 23 0 0 0 .79-3.67 17.31 17.31 0 0 1 3.15-8.41c-.16 1.19 1.25 3.93 3.94.37v-2.86c0-1.26.19-2.76.44-4.42a33.7 33.7 0 0 1 1.18-5.33 28.93 28.93 0 0 1 2.36-5.42l1.5-.77 3.17-5.29c-.42 2.12-1.6 5.8-2.68 9.77l-1.72 5.82c-.54 1.88-1.06 3.6-1.55 5 2.36-2.37 1.23-.26 4-4.34 1.57-1-.7 2.8-1.47 4 2.25-3.07 4.69-6 7.07-8.94-1.54-.53 4.28-7.74 3-8.21-2.21 3.58-4.43 7.11-6.45 10.77-.75-.24-.53-2.32.54-5.16a32.6 32.6 0 0 1 2.35-4.59c.49-.81 1-1.63 1.62-2.45s1.27-1.58 2-2.34c1.82-1.19 1 2.91 1.51 3.1.3-1.12 4.28-6.52 5.11-6.78-.59 1-1.17 2-1.71 3.1a20.33 20.33 0 0 0 3.64-4.89 18.22 18.22 0 0 1 1.82-2.54 12.16 12.16 0 0 1 2.89-2.3c1.4-1.27 5.29-2.59 4.94-3.41-3.39.85-7.52-2.41-6.93-4.84.58-.4 8.52-5.79 10.79-6.48 3.25-1-1.47 5.48 1.32 4.6-.19-.38.78-1.88 1.22-2.47 1.73-1 .21 1.5 3.34-1.45-.44-1.66 6.92-5.36.76-2.28a19.16 19.16 0 0 1 3.47-2.78c1-.66 2.13-1.36 4.13-2.83-.93.07-.54-1.25.51-3a21.32 21.32 0 0 1 4.41-5.19c0 .46 1.09.33 1.61.26 1.84-1.18 3.45-2.26 5-3.12l4.48-2.46 2.16-1.18 2.25-1.15c1.53-.79 3.13-1.65 4.9-2.66.82-.08 4.52-1.45 3.34-.12a16.23 16.23 0 0 1 3.82-2.91c4.88-1.06-4.85 2.75-.86 2.45-.06-.46 1.22-1.48 2.9-2.64.85-.56 1.8-1.14 2.73-1.71l1.35-.85 1-.68c-.31-.23-.83-.19-1.66.11a20.53 20.53 0 0 0-2.86 1.39 66.81 66.81 0 0 0-5.69 3.88c-.45-.83.48-2.39 2.45-4.36a28.55 28.55 0 0 1 3.73-3.09l1.15-.81c.4-.27 1-.64 1.53-1 1.1-.69 2.3-1.36 3.58-2.06 4.16-2 5-2.05 4.85-1.64s-1 1.17-.3.72c1.75-.7 3.26-1.37 4.64-2l1-.49.49-.25a1.34 1.34 0 0 1 .23-.11v.21c0 .55.09 1.05.15 1.52a39.18 39.18 0 0 0 .9 4.51 23.25 23.25 0 0 1 .59 5c0 1.06 0 2.3-.1 3.74-.05.71-.1 1.52-.22 2.29l-.08.51-.08.46-.2 1c-1.56 4.14-2.39 0-3.33.86a32.27 32.27 0 0 1 .24-3.76c.11-1.17.28-2.25.45-3.32a40.29 40.29 0 0 0 .76-6.39c-.21 1.94-.49 3.77-.78 5.51A29.35 29.35 0 0 1 474 299a21.3 21.3 0 0 1 .19-4 38.58 38.58 0 0 0-.64 5.55c-.11 1.17-.2 2.45-.3 3.81s-.17 2.76-.33 4.31l-.44 4.71c-.17 1.59-.4 3.17-.61 4.72a76.66 76.66 0 0 1-1.6 8.39c.18 1.79 0 4.82.75 3.5.13-1 .26-2.06.34-3.1.68-1.34.81.16.87 1.52s0 2.58.59.66c0 2.13 0 4.41-.13 6.88a36.69 36.69 0 0 1-1.51 8l-1.59.79c.2 0 .64-.91 1-2a11.69 11.69 0 0 0 .57-3.3c.15 2.58-3.76 8.44-2.67 11.49.65-1.26 1.25-2.54 1.89-3.82-.08 1.07-.12 2.22-.17 3.41s-.16 2.43-.29 3.69-.31 2.55-.56 3.84a24.26 24.26 0 0 1-1.12 3.8c2-1.95.24-1.2 2.75-4.42-1.37 1.32-.47-2 .34-5s1.41-5.88-.18-3.56a14.66 14.66 0 0 0 2.48-5 28.21 28.21 0 0 1 2.32-6c-.49.07-1.17 1.6-.13-2.75a5.47 5.47 0 0 1-.22-1l.09-.29-.09.23v.09a6.92 6.92 0 0 1-1.07 2.11 21.38 21.38 0 0 1 .05-5.85 44.65 44.65 0 0 0 .32-5.91c.59-2.57.35 1.16 1-.19-.1-1.22-.16-2.43-.3-3.64 1-.21 2.46-6.79 2.32-.51l.69-5.59a44.44 44.44 0 0 0 1-5.48l.08-.71v-1.05c0-.78.06-1.54.08-2.28v-3.94a35.37 35.37 0 0 0-.13-6.42c-.17-1.52-.29-2.09.06-.59l-.16-6.75v-2.01l-.42.2-.84.4-3.3 1.57.06-.3c-3.15 1.3-6.43 2.79-9.66 4.3-3.07 1.43-6.9 3.48-8.43 4.3-2.06 1-4.11 2.2-6.28 3.23s-4.45 1.92-6.82 2.79a98.69 98.69 0 0 1-9.23 5.76l-1.27-.23a29.71 29.71 0 0 1-2.88 1.8l-3.36 2c-2.21 1.33-4.17 2.55-4.56 3.4a12.07 12.07 0 0 0-4.42 1.92c-.86.53-1.78 1.15-2.72 1.83s-1.86 1.47-2.82 2.25l-2.84 2.41-1.4 1.2-1.35 1.07c-1.73 1.59-3.33 3-4.67 4l.56 1a94.71 94.71 0 0 0-10.08 10.61l1 .46c-2.86 4-9.12 8.57-14 14.56 0-.67 1.39-2.07 2.46-3a22.65 22.65 0 0 0-2.72 2.28 33.94 33.94 0 0 0-2.34 2.69 51 51 0 0 0-4 5.95c-1.21 2.06-2.46 4.05-3.66 6a27.77 27.77 0 0 1-4.05 5.16 13.94 13.94 0 0 1-2.76 4.21 2.64 2.64 0 0 0 .24-.46c-.13.17-.3.44-.47.71-.64.68-1.33 1.36-2 2.13a18.08 18.08 0 0 0 1.77-1.75c-.42.68-1 1.54-1.48 2.51s-1.06 2.05-1.57 3.13l-1.44.31-.26.49c-1.55 1.8-.54 1.86.8 1.22a17.91 17.91 0 0 0-1 3c-2.42.79-2.59 5.66-5.4 7.05 0 .92-1.22 3.63-2.34 6.36s-1.95 5.53-1.37 6.5c-.26 0-.67.53-.12-.61a23.17 23.17 0 0 0-3.16 6.91l-1.71.44c-.27 2-.44 4-.65 6-2.15 2.85-3.17 4-2.76.41-1 4.15-1.37 5.8-1.83 7.28a36.46 36.46 0 0 0-1.36 6.41l-.7-.64c-.87 2.39-1.22 6.57-2.39 7.77a32 32 0 0 0-3.07 6.34c-1.1 2.93-2.38 6.49-3.59 10.37-2.53 7.73-5.07 16.59-7.69 23.43 3.24-2.06-2.87 6.24-1 7.31-.8.67-1.62 2.56-1.57.14a48.89 48.89 0 0 1-1.45 6.16l10.07 1.07c.16-3.63.49-6.35-.64-9.7.62-.82.9 1.56 1.27.83-.13-.58-.53-2.3-.17-3s.52 1.07.78 2.21c0-.92-.05-1.73-.12-2.46s-.09-1.36-.18-1.92a7.7 7.7 0 0 0-.76-2.53 3.87 3.87 0 0 0-2.43-1.88c1-3.74.93-5.6.05-8.42.7-1.27 1.5-3.4 1.29 1.22.16-1.29.72-5.23 1.07-8.89s.74-7 0-7.25c.46-.76.57-3.6.49-4.3 1-5.77 1.22-6.25 2-11.94-.19.5-.34 1-.51 1.53-1.32-2.55.55-4.77 1.24-9.36l.15.17c.8-2.55 1.35-4.08 1.6-5.14a14.19 14.19 0 0 0 .4-2.19 12.38 12.38 0 0 1 .43-2.16 40.84 40.84 0 0 1 1.84-5l-1.18.28c-1-.76-.06-2.94 1.2-5.67s3-6 3.48-9c-.42.64-.84 1.27-1.23 1.92.23-3.44 5.78-7.91 7.17-10.89.42-.61-.07 1.18-.26 2.18 2-3.86 1.82-4.23 1.3-4.42s-1.34-.2-.37-3.29c1.13-.84 1.25 2.09 2.92-1.88.68-.88 1.23-4 2.18-7.47l.35-1.24.49-1.31c.34-.87.69-1.74 1.08-2.57a18.57 18.57 0 0 1 2.62-4.33c-1.1.88-2.21 1.77-1.23-1.1a17.22 17.22 0 0 1 .87-1.64c.36-.56.78-1.12 1.22-1.7l2.77-3.6a32.22 32.22 0 0 0 2.45-3.66 11.09 11.09 0 0 0 1.43-3.45c.46-.4.71-.5.84-.44.77-1.59 2.19-4.06 3.46-6.44s2.63-4.51 2.86-5.66c1.23-.1 2.57-1.3 3.93-3s2.94-3.82 4.35-5.93c2.8-4.25 5.67-8 6.88-6.78 2.42-2.67 4.76-5.41 7.35-7.91v.44a40.5 40.5 0 0 0 5.2-5.5 27 27 0 0 0 2.41-3.62c1.36-.89.69.12.71.34 4-3.08 6.16-4.85 8.1-6.53a77.63 77.63 0 0 0 6.3-6.88l1.38.36c.74-.93 4-2.73 7.89-5.15 2-1.15 4.23-2.39 6.39-3.78 1.09-.69 2.17-1.42 3.21-2.18s2.11-1.45 3.09-2.23c0 .16-.08.44-.68 1a54.22 54.22 0 0 1 7.61-4.66c2.8-1.31 5.69-2.5 8.33-3.66l1.93-.87 1.85-.78a33.64 33.64 0 0 0 3.23-1.6c1.91-1.1 3.27-2.28 3.78-3.63 2.11-1.29 4.27-2.51 6.41-3.77-9 3.4.65-2.16-3.26-1.26 3.43-1.7 9.51-2.63 5.28-.67l-.75.09c-.39 1.31 2.4.27 5.42-.66s6.13-2.1 6.24-1.38c.54-.19 1.11-.42 1.63-.59l1.57-.49c1-.28 2.08-.54 3.11-.71a18.14 18.14 0 0 1 5.9-.16 9.23 9.23 0 0 1 7.55 5.9 13.07 13.07 0 0 1 .75 2.5c0 .2.08.44.09.58a3 3 0 0 1 0 .44v1.58c0 2.2-.05 4.43-.14 6.65s-.23 4.43-.33 6.63l-.46 6.57 1.75-1.91c-.13 2-.34 4.08-.56 6.12-.52 1.57-1.46 2-1-2.31-1.13 2.2.14 7.36.42 7.53-1.68 8.43-1.49-3.53-1.84-.92l-.3 3.54.28-.77c.16 1.47.41 2.29.52 3.4a12.92 12.92 0 0 1 .05 2c-.06.81-.18 1.81-.4 3.1-.83 3.24-1.25 1.53-1.51 2.82-.11 0-.23.4-.35 2-.45 2.53-1 5-1.53 7.55l1.84-2.79c0 3.49-1.42 7.15.68 3.91a12 12 0 0 0-1.18 2.58c-.43 1.09-.86 2.4-1.29 3.84-.88 2.88-1.62 6.35-2.6 9.7l-1.31 4.93c-.42 1.58-.78 3.08-1.22 4.38a39.76 39.76 0 0 1-1.9 5.31c-.46 4.9-2.21 9.34-4.32 14.84.74-1.28 2.43-1.59.47 3.13-2.07-2.82-4.78 8.14-8.38 11 2.87-2.7-5.87 13.07-1.59 8.81-2 3.71-1.11-.27-3.12 2.3a51 51 0 0 1-3.44 7c-.65 1.19-1.42 2.35-2.2 3.52l-2.41 3.55c-1.66 2.38-3.53 4.69-5.28 7.12l-2.79 3.58c-.93 1.2-1.79 2.47-2.74 3.67.18.4 2-.84.74 1.58-1.9 1.26-3.72 2.58-5.65 3.75-1.46 1.91.23 3.2-3.78 5.55.67-.22 1.69-.56.65.7-2.29 2-4.46 4.12-6.78 6.1-1.15 1-2.24 2.07-3.42 3l-3.48 3a184.66 184.66 0 0 1-14.64 11.26c-10.22 6.91-21.59 12.52-33.64 14.75 3.35-.34 1.32.43-1.06 1.27 1.61-.36.27.93.75 1.33-1.69.34-3.42.56-5.11.85s-3.41.47-5.11.63c-.71.95-3.37 1.63-5.95 2.15s-5.06.92-5.49 1.7c1.05-.25 2.1-.49 3.15-.77-2 1.2-.36 1.85 1.81 2.46s4.85 1.06 4.76 2.16c2.26-1.46 5.61-1.61 9.37-2.1s7.89-1.41 11.27-4.16c1.86-.26-1.21 1.2-.12 1.31 1.64-1.64 3.91-2.71 8.36-4.29l-.39.42c1.51-.68 2.87-1.39 4.18-2s2.54-1.22 3.71-1.82l3.43-1.69 3.3-1.69c1.11-.55 2.22-1.13 3.35-1.77l3.57-2c2.44-1.47 5.18-3.06 8.25-5.21l-1.52-.19a37.72 37.72 0 0 1 4.73-2.67c.93-1.79-.81-.36-2.66 1s-3.77 2.65-2.95 1c2.34-.37 6.87-3.76 11-7.34l3.06-2.6c1-.86 1.88-1.66 2.73-2.35 1.72-1.37 3.16-2.31 4.08-2.41 3.45-3.54-1.87.18 1.56-3.35l1.39-.48.24-1.48c2.24-2.31 3.95-3 4.45-2.7a29.14 29.14 0 0 0-1.9 2.44 29.73 29.73 0 0 0 5.2-5.7 55.2 55.2 0 0 1 3.4-4.49l-3.3 3.4c4.12-5.35 8.47-11.43 12.53-17.63 1.91-3.17 3.92-6.26 5.51-9.49.83-1.59 1.62-3.17 2.36-4.72s1.26-3.15 1.82-4.67l-.87.66c3.36-9.26 4.06-6.8 7.79-16.92v.41a27.17 27.17 0 0 1 .91-3.61c.21-.65.44-1.31.69-2s.47-1.37.74-2.05c-.39 2.76 2.81-4.4 2.19-.82 1.37-5.18 1.63-6.48 1.64-7.39a42.09 42.09 0 0 1 0-5l1.27-1.28c0-2.5-.31-2.81 1.08-8-.61 4.39 2.21-2.92 1.66 2.05a34.63 34.63 0 0 0 2.5-7c.52-2.12.83-4 1.1-5.71.42-3.43.77-6.06 2.63-8.31-1.09-5.52-3.4 9.23-3.24 6.3-1.26 2.18-.72-4.54.28-7.9a22.36 22.36 0 0 1 2.52-5.12 25.45 25.45 0 0 0 3.05-9.25c-.15.89 0 1-.13 1.87a19.86 19.86 0 0 0 .72-5.08A27 27 0 0 1 507 310a14.21 14.21 0 0 1 .7-2.91c-1.1-2.49.74-5.37-1-6.23l-.57 8.29c.05-2.37-.3-4.71-.43-7.38a33.8 33.8 0 0 1 .62-9.52 18.7 18.7 0 0 1 .72 4.55 10.8 10.8 0 0 0 .38-3.31 11.06 11.06 0 0 1 .3-3.38c1.75.79-.28 10.11.35 15.27a16.33 16.33 0 0 0 .48-5.38c0-1.78.06-2.93.9-1.57-1.07-1.94-.72-4.15-.45-6.7a21.2 21.2 0 0 0-.14-8.53l1 .44a32 32 0 0 1-.53-4.83c.44 1.09.91 2.2 1.32 3.3a16.66 16.66 0 0 1-.29-3.73c0-1.22.2-2.43.33-3.66s.3-2.44.34-3.69v-1.1a10.46 10.46 0 0 0-.19-1.5 11.81 11.81 0 0 0-.7-2.33 19.5 19.5 0 0 1 .54 2.2 11.69 11.69 0 0 1 .22 2.1 13.38 13.38 0 0 1-.08 1.77c-.1.79-.28.89-.5.81-.43-.16-1-1-1.31 1.12l-.26-2.15-.09-.94-.08-1c0-.38-.09-.72-.16-1.08l-.16-.84-.28-1.43c-.34-1.73-.49-2.92-.73-4.23a11 11 0 0 0-2-4.68 13.75 13.75 0 0 0-3.11-3.09 16.32 16.32 0 0 0-5.74-2.62 11.44 11.44 0 0 1 2.6.96 12.18 12.18 0 0 1 2.46 1.57 3.36 3.36 0 0 1 1.1 1.22c0 .21-.29.08-1.22-.35a22.1 22.1 0 0 0-5.17-2.75c-1.8-.69-3.44-1.06-4.48-1.4a19.51 19.51 0 0 0-3.28.14 6.26 6.26 0 0 0-1.37.27c-.41.19 0 .25.63.38 1.26.21 3.24.54.94 1a7.63 7.63 0 0 0-1.32-.25 6.33 6.33 0 0 0-1.15 0 6.26 6.26 0 0 0-2 .64c-.66.29-1.3.68-2 1.09s-1.54.84-2.52 1.26l-.36-1c-5.13 1.44-5.53 2.22-5.89 2.92s-.57 1.32-5.11 2.57c1-1 2.12-1.84 3.2-2.77-1.49.7-3 1.32-4.46 2.1l.49-1.53a37.31 37.31 0 0 1-5.47 3c-1.59.71-3.28 1.16-5.72 2.13 1.41.17.18 2.07-4 4.07-3.12.77 1.15-1.68-4.71 1.27a6.89 6.89 0 0 1 5.16-3c.11-.44 1-1.24 1.17-1.68-3.4.81-7.87 3.49-9.93 4.69a15.05 15.05 0 0 1 2.4-1l-7.72 5.79c-1.52.35-.63-.49.26-1.32a20.32 20.32 0 0 0-2.21 1.6 25.44 25.44 0 0 1-2.75 2c.2-1.12-.43-1.85 2.89-4.21-2.5 1.77-4.93 3.65-7.39 5.46-.72 0-4.57 1.51-3.73.63a43.84 43.84 0 0 0-7.19 5.4l-1.94 1.62c-.65.55-1.29 1.13-2 1.67a31.89 31.89 0 0 1-4.16 3 8 8 0 0 1-1.73 1.82c-1.32.86-2.58 1.73-3.83 2.61s-2.52 1.73-3.78 2.65-2.53 1.89-3.79 3a43.78 43.78 0 0 0-3.63 3.89l-4.23 1.64c-2.09 2.08-.67 1.48.4 1.24.53-.12 1-.15.86.27s-.85 1.26-2.46 3.08c-4.58 5.15-2.76.82-4.8 2.2l-1.68 2.59c-.65 1-1.4 2-2.18 3.13a27.76 27.76 0 0 1-6.24 6.4c1.24-1.87 2.53-2.92 3.78-4.43zm-39.51 60.1c.17-.69.35-1.75.66-2.73a4.11 4.11 0 0 1 1.24-2.25 3.75 3.75 0 0 1-.34 2.47c-.37.73-.94 1.47-1.56 2.51zm-19.85 106a8.9 8.9 0 0 1 .43-4.38 18.66 18.66 0 0 1-.44 4.37zM478.35 310a1 1 0 0 0 0-.15l.35-1.57c.06-.27.09-.46.07-.34zm-1.08 6.38c.07.66.23.63.41.38a10.5 10.5 0 0 1 .16-3.55c-.31.45-.58 1.26-.57 3.2zm20.17-.8l.46-1.15c-.11 2.79-.27 1.98-.46 1.18z" transform="translate(-6.51 -167.94)"/>
  <path class="cls-7" d="M316.93 473.09a1.05 1.05 0 0 1 .63-.55c-.13-.54-.34-.54-.63.55zm93.38-183.88l.18-.12a.51.51 0 0 0 .06-.29zm2.21 46.5a9.1 9.1 0 0 1-2.23 1.19c.12.24.71.03 2.23-1.19zm60.56 14.7l.68-4.1a14.27 14.27 0 0 1-1.2 3.55c.26-.03.8-.72.52.55zM456 382.26c-.1.6-.45 1.17-.54 1.76h.52c.86-2.32 1.13-4.1.02-1.76zm12.66-29.03c-1 .08-1.29 2.64-1.92 5.44 0-.17.08-.32.14-.49 1.01 1.17 1.42-1.9 1.78-4.95zm-2.07 6.09c-.21.86-.44 1.73-.73 2.54.39.47.41-1 .73-2.54zm10.25-34.72c-.43 1.32 1 1 .54 1.74.92 1.66-.06-9.27-.54-1.74z" transform="translate(-6.51 -167.94)"/>
  <path class="cls-7" d="M458.68 186.75l1.34-.7-.46-1.76-.88 2.46z"/>
  <path class="cls-7" d="M470.92 333c-.35 1.48-.73 2.95-1.15 4.41.2 0 .19.56.13 1.27.63-2.73 1.37-5.68 1.02-5.68zm-1.02 5.68a18.67 18.67 0 0 0-.55 3.62c.14-.78.45-2.45.55-3.62z" transform="translate(-6.51 -167.94)"/>
  <path class="cls-7" d="M459.91 180.68l.53-1.25.81-3.1-1.34 4.35z"/>
  <path class="cls-7" d="M465.63 295.91c-1.69.87-3.31 1.76-4.87 2.62-.29.56 1 .19 2.7-.76 1.04-.77 2.89-1.77 2.17-1.86zm6.04 5.21a13.71 13.71 0 0 1 .93-2.64l-1.45 1.52q.26.46.52 1.12zm-5.98-1.51c-.21.29-1.36 1.13-1.86 1.61s-.51.65 1.2-.2a9 9 0 0 1 1.48-1.22c.49-.4.67-.65-.82-.19z" transform="translate(-6.51 -167.94)"/>
  <path class="cls-7" d="M397.85 169.97l.9-.87-1.66-1.55.76 2.42z"/>
  <path class="cls-7" d="M368 391.5c1.72-2.31 1.6-2.78 1.45-3.19s-.32-.76 1.39-2.75c.27-1.43-2.77 3.27-2.41 1.87-1.36 3.27-2.58 4.65-.43 4.07zm.39-4.07c.21-.53.45-1.07.66-1.68a8.67 8.67 0 0 0-.66 1.68zm-3.27 91.5c-1.21.08-2.41.13-3.6.16.79.14 1.6.24 2.4.36zm-6.55 2.77l-1-1.34c-.63.51-1.34 1-1.88 1.48a8.07 8.07 0 0 1 2.88-.14zM331 388.39l.22.4c.56-.43.9-1.27 1.59-3z" transform="translate(-6.51 -167.94)"/>
  <path class="cls-7" d="M350.3 174.25l-.57.71 2.08-.6-1.51-.11z"/>
  <path class="cls-7" d="M384.66 307.75c-1.34 1.23-2.66 2.92-4 4.15 2.67-2.9 5.48-3.31 4-4.15z" transform="translate(-6.51 -167.94)"/>
  <path d="M289.66 498.83C267 473.39 186.24 370.56 302.38 199.36c28.78 51.95 80.65 148.2 20.22 299.47 42.24-29.34 104.28-190.31-10.16-322.39 0 0-9.09-12.84-19.25 0S163.14 371 289.66 498.83z" transform="translate(-6.51 -167.94)" fill="url(#linear-gradient-3)"/>
  <path class="cls-7" d="M292.45 493.89c1.3 1.48 1.47.31 1.8.41-2.41-2.23-1.92-.19-1.8-.41z" transform="translate(-6.51 -167.94)"/>
  <path class="cls-7" d="M263.48 302.34l.64.26-3.53-3.42 2.89 3.16z"/>
  <path class="cls-7" d="M254.45 444a7.27 7.27 0 0 0 .76 3 33 33 0 0 0 2.09 3.73c1.58 2.66 3.62 5.42 4.75 7.91l.15 1c.77.49 1.6.94 2.39 1.41-3.66-5.44-8.59-12.57-10.14-17.05zm-3.26-16.11c-.22 1.14-1.77-3 1.19 3.53-.07-.36-.07-.47-.1-.69-.28-.59-.58-1.41-1.09-2.84z" transform="translate(-6.51 -167.94)"/>
  <path class="cls-7" d="M252.28 430.74c1.2 2.91-.28-2.11 0 0zm-5.21-13.62c.6 1.27 1.16 2.54 1.78 3.79.06-.94-.94-4.48-.28-3.26-1.57-3.95-1.65-3.03-1.5-.53zm-2.26-3.46c.26.68.54 1.35.84 2 .03-.39-.11-.95-.84-2zm2.68 6.25l-1.84-4.24c-.07.65-.54.87.8 2-.57-.25.14.49 1.04 2.24zm.6 2.54c.45 2.32 1.26 5.27-.66 1.48 1.41 3.77 2.39 5.23 2.54 4.85a5.07 5.07 0 0 0-.37-1.9c-.29-1.07-.79-2.56-1.51-4.43zm4.2 20.9l1 3.09c.57.75 1.11 1.51 1.72 2.24-.92-1.11-2.35-5.74-2.72-5.33zm-10.34-51.62c-.38-.2-.66 1.53-1 1.91.29 1 .59 2 .93 3-.17-1.64-.38-4.64.07-4.91zm-1.04 1.91l-1.33-4.48c.61 4.1 1 4.84 1.33 4.48zm2 19.78c.52 1.19 1.08 2.35 1.67 3.51l1.72 3.46c-1.29-2.77-2.64-5.54-3.79-8.4zm-3-39.13c.32.85.63 1.7 1 2.53-.56-1.5-1-3-1.52-4.54zm-.69-11.65c.66 1.92 1.08-2.67 1.49-.63a36.76 36.76 0 0 0-.48-4.41c-.22-1.37-.44-2.66-.67-3.89a40.6 40.6 0 0 1-.34 8.93zm-.28-13.07a37.31 37.31 0 0 0 .62 4.13 34.75 34.75 0 0 0-.62-4.13zm-.19 31.73a7.18 7.18 0 0 0 .6-3.72l-.77 1.9zm-.18-1.75v-.07c-.17-2-.3-3.34-.32-3.93.03.51.15 1.7.32 4zm.22 2.21v-.46a.37.37 0 0 0 0 .46zm2.01 19.58c-1.05-2.56-2.74-8.11-2.45-2.49 1.03 1.8.86-1.4 2.45 2.49zm-2.92-17.19l.43 4.95c.24-.14.47-1.07.93.23zm-.58-2.38c.17.8.38 1.59.59 2.38 0-.61-.12-1.22-.15-1.83zm.58-23.77a39.25 39.25 0 0 1-.41-7.11 85.15 85.15 0 0 0-.38 8.53c.31.38.85 1.58.79-1.42zm-.02 10.48l-.07-.47c-.08.3-.09.53.07.47zm1.85-43.48l-.23.39a1.52 1.52 0 0 1 .15.12z" transform="translate(-6.51 -167.94)"/>
  <path class="cls-7" d="M236.92 359.89a11.78 11.78 0 0 0 .42 4.6c-.18-1.58-.2-3.27-.24-5.08-.1-.17-.23-.21-.18.48zm1.97-17.55c-.28 1.09-.54 2.33-.75 3.64.33-1.07.96-3.23.75-3.64zm-.89 24.94l.05.32c.2-.7.11-.6-.05-.32zm0 0a23.68 23.68 0 0 0-.69-2.79c.12 1.29.27 2.49.45 3.52a3.87 3.87 0 0 1 .24-.73zm-3.12-51.15c.79.53.67 6.28-.86 11.05.07 4.91 3.33 2.05 5.46-1.84-.36-.2-.71-.24-.51-5.2-.36.82-1 3.48-1.64 5.43s-1.08 3.17-1.22 1c.45-6.58 1.05-5.3 2-8.37-1.55 2.51-.18-8.52-2-7.4-.2 1.94-.3 3.89-.45 5.82-.24.1-.28-2.04-.78-.49zm3.43 18.48l-.09 2a34.43 34.43 0 0 1 1.92-6.8c0-3.37-.27-4.11-.52-4.37-.45 3.28-.92 6.56-1.25 9.85zm-.74 11.05c-.92-1.62-.92-6.51-2.19-3.61-.32 6 .58 4.22.8 7.78.21-9.58.41 2.77 1.27-4.11.08 1.88 0 3.57 0 5.16.18-1.71.41-3.36.66-4.9l-.07.21c-.14.4-.22.54-.13.08a1.28 1.28 0 0 1 0-.2 1.1 1.1 0 0 1-.34-.45c.33-2.75.27-.42.34.45 0 0 .09.11.14.12v-4.78c0-1.6 0-3.19.12-4.78a33.58 33.58 0 0 0-.39 3.58c-.03 1.45-.17 3.2-.21 5.45zm-2.19 48.47c0-.31.1-.31.17-.34-.22-.61-.34-.79-.17.34zm-.08-4.04a9.52 9.52 0 0 1 1 3.47c0 2-.46.07-.75.22.48 1.33 1.46 4.65 1.22.3l-.24-.65c-.37-3.9.25-9 .45-8.35a13.1 13.1 0 0 0-1.68 5.01zm-.24-22.63l-.39-4-.27-4-.79 4.12.49-.22c-.03 4.56.55 3.54.96 4.1z" transform="translate(-6.51 -167.94)"/>
  <path class="cls-7" d="M233.81 156.17l.85 1.18-.75-4.75-.1 3.57z"/>
  <path class="cls-7" d="M241.83 313.88l.8.53v-2.78zm96.41 115.88l.2-2.36c-.13 1.1-.18 1.82-.2 2.36zm-3.97 16.57l.31.51c-.03-.84-.11-1.18-.31-.51zM353.3 252.4l.41 2.59c.09.85.16 1.66.25 2.33.18 1.34.41 2.16.8 1.79l.54-1.32a31.06 31.06 0 0 1-1.17-3 25.21 25.21 0 0 1-.83-2.39zm13.37 171.95l.58-.89-.21-2.51zm3.11 3.55c-.62 1.43-1.33 2.84-2 4.23a29 29 0 0 0 2-4.23zM343 337.53l-1.24-2.61c.46 4.23.77 2.32 1.24 2.61zM276.81 213.7c1.71-2.45 3-4.44 4-6.23-2.2 2.85-4.28 5.02-4 6.23zm69.96 224.89c.16-1.48.11-2.14-.11-2.14-.18 1.55-.2 2.39.11 2.14zM285 200c-.34.4-.64.82-1 1.24-.94 2-1.89 3.91-3.21 6.19A24 24 0 0 0 285 200zm-37.92 181.67c0 .24 0 .54-.08.76.12.07.12-.27.08-.76zm21.44 96.43c-.59-.82-1.46-2.2-2.3-3.5a31.14 31.14 0 0 0 2.3 3.5zm-16.1-204.54c-.6 2.12 0 .37 0 0zm-6.79 9.18c0-.48 0-.87-.2-1a1.52 1.52 0 0 1 .2 1zm46.1-104.59l.12-.16c-.54.44-.45.37-.12.16zM251 276.59c.36-.75.74-1.63 1.12-2.6-.2.4-.55 1.19-1.12 2.6zm.58-.29l-.66 1.81c.08.31.24.1.66-1.81zm1.75-5.67c-.38 1.2-.8 2.3-1.21 3.36.19-.39.3-.55.29-.43zm43.83-57.88c-.08.06-.16.15-.24.21-.68 1.76-.32 1.09.24-.21zm81.64 92.75c0-.1-.06-.16-.08-.25v.34zm1.91 8a16.39 16.39 0 0 1-2-7.92l-2.36 3.1z" transform="translate(-6.51 -167.94)"/>
  <path class="cls-7" d="M343.9 389.44l-1.33 5.44c-.86-6.8 0-11.52-1.62-6.47 1.44.5 1.21 5.88.55 11.21-.29 2.67-.55 5.35-.62 7.42s.06 3.56.78 3.86l-1.2 3.52c.19-1 0-1.23.23-2.24-1.27 3.4-.93 4.79-.52 6.46s.8 3.63-.3 8.11c-.84 3.11-1.7 5.21-1.63 3-.22 2.39-.57 4.75-.85 7.14-.53 2-.92 1.4-.4-.6-.76 3.56-1.43 7.13-2.35 10.66l-.07-.1c.06 1.62-.16 5.23-.3 7-1.14 2.57.05-1.43-.5-.85-.29 2-.56 4-.95 6-1.49 2.14-.68-2.86.45-6.88-4.34 4.63-.61 5.05-5.85 16.19l1.3-5.56a17.78 17.78 0 0 0-3.09 5.56 81.28 81.28 0 0 1-3.47 7.57c.51-.63 2.19-3.45 3.58-5.32.7-.94 1.31-1.64 1.65-1.7s.47.52.11 2.13a25.75 25.75 0 0 0-2.29 7.5c-.51-.16-1 .6-1.5 1.91-.26.66-.52 1.45-.81 2.34l-1 2.87-1.23-.77c-1.28 4.5-.47 4.42-.85 7.22a16 16 0 0 1-2.6 4.61L304.46 511l21.45-7.36a10.13 10.13 0 0 1 2.89-.48c3.9-2.91 2.27-2.21.83-1.71-.72.25-1.4.44-1.36.13 0-.16.22-.44.68-.9.23-.23.52-.51.89-.84s.74-.76 1.23-1.23a43.74 43.74 0 0 0 4-3.57c1.14-1.24 2.2-2.49 3.25-3.8s1.93-2.77 3-4.3c.5-.78 1-1.57 1.54-2.42l1.52-2.73c3.31-3.9.21 1.23 1.59 0 .54-1.47 1.14-2.89 1.57-4.38.6-.92.71-.43.76-.18 1.62-3.46-1-1 1.73-6.26-.29-1.09 1.66-3.42 3.95-6.44a48.88 48.88 0 0 0 3.22-5 27.22 27.22 0 0 0 1.32-2.72 14.9 14.9 0 0 0 .78-2.78c1.09-1.47.44 1.15 1.17.88 1.49-4.83 2.2-6.86 2.62-8.75s.79-3.57 1.53-7.65l3.16-6.26c-1.34 2.25-1.78 1.71-1.77-.08a33.53 33.53 0 0 1 .28-3.45c.11-1.35.27-2.84.43-4.27-1 1.56-1.88 2.88-2.38 3.8l1.85-8.8c.54-1 .75 0 .9 1.6.06-.62.12-1.21.15-1.67.71-1.47 1.09-1.77 1.39-1.37a6.1 6.1 0 0 1 .46 2.68c-.59 1-1.19 1.94-1.78 2.87.19 2.38.49 4.68 1.42 4.49a17.58 17.58 0 0 1 .49-3c.06.63.15 1.05.36.83s.21-1.26.29-2.79l2.12-1.55-.46-.66c1.39-3.75 2.67-7.54 4-11.34.23-8.76-.38-16.4.55-29.75.73 3.44 1.8.95 3.14 1.29-1 1.74-1.12 4.35-1.26 7.4a69.92 69.92 0 0 1-1.1 10c.77-3.59 1.28-2.68 1.35-1.71.24-4.22.64-8.4.65-12.61 1.08.43 1.18-2.53 2.06-5.74-1.29 1.1-1.27-1.25-1.21-4.54s.52-7.48.3-10c.38-.14.75.11 1 1.17a24.55 24.55 0 0 1-.19 6c2.33-6.75-2-9-.28-15.63 0 1.51-.19 2.32.16 2.94a22.8 22.8 0 0 1-.15-3.37l.13-3.8c.12-2.35.41-4 .74-3v1.52c.05-2.52.09-5.7 0-9.08s-.43-6.94-.73-10.22c-.12-1.65-.38-3.21-.62-4.65s-.5-2.76-.75-3.88c-.51-2.26-1-3.77-1.54-4.09a7 7 0 0 1 2.84 1.62c-.7-1.44-1.3-2.88-2.07-4.29l-2.23-4.21-2.32-4.26c-.74-1.38-1.46-2.75-2.3-4.09 1 .62 2.09-.71 3.3-1.21a1.68 1.68 0 0 1 1.86.23 6.81 6.81 0 0 1 1.8 3.66 36.28 36.28 0 0 0-2-10.28c.1 1.67-1.51 4.46-2.09 2.3a40.91 40.91 0 0 0 .28-5.54c0-1.27-.22-2.68-.4-6.54.27 2.47-2.89.42-3.75-3.32.52.49 2.36-1 3 .35l-2.4-4.36c-.85-1.43-1.75-2.84-2.61-4.25 1.14 2.16 2.16-.19 2.19-2.48-.21 1.12-2.34-8.06-3.63-10.35.28 1.35.61 2.69.85 4a25.39 25.39 0 0 0-5.24-9.6 46.13 46.13 0 0 1-2.72-3.58 29.33 29.33 0 0 1-3-5.61c1 1 4.21 1.71 2.31-3.48l-2.56-2.08-4-3.35a57.5 57.5 0 0 1-4.58-4.42c-.76-.82-1.5-1.68-2.21-2.59s-1.37-1.85-2.09-2.79l-.25-1.91-4.29-5.8a113 113 0 0 1 8.89 7.72c3.35 3.43 6.83 7.23 9.12 10-1.31-3.91.27-1.39-2.54-6.86-.36-2.26 2.44 2.53 3.29 4.14l-3-6.53c-1-2.17-2-4.38-3.15-6.47-1 1.27-6.76-8.78-7.56-7.66l4.52 6.33c1.5 2.12 3.08 4.21 4.41 6.44-.55.65-2.38-.94-4.95-3.59a51.07 51.07 0 0 1-4-4.85c-.67-.93-1.34-1.92-2-2.94l-1.94-3.16c-.89-2.45 3.32.19 3.61-.22-1.13-.85-6-7.52-6.24-8.5l3 3.16a27.37 27.37 0 0 0-4.62-6c-.41-.46-.82-.92-1.23-1.42s-.86-1-1.27-1.52a19.56 19.56 0 0 1-2.33-3.92c-1.29-1.93-2.57-6.78-3.52-6.57.9 4.12-2.94 7.83-5.42 6.61l-1.07-2c-.29-.53-.6-1.16-1-1.8l-1.2-2a77 77 0 0 1-3.89-7.13c-1.38-3.8 6.07 2.37 4.91-.86-.41.15-2.13-1.16-2.81-1.74-1.28-2.11 1.61 0-1.9-4a.9.9 0 0 1-.59-.15l.21.27c-.37-.32-.65-.54-1-.87l-1.07-1c-.73-.7-1.5-1.4-2-1.83s-.83-.63-.55-.34a21.64 21.64 0 0 1 2.37 2.8 34.6 34.6 0 0 0-2.78-2.23 23.27 23.27 0 0 0-2.28-1.49 11.74 11.74 0 0 0-2.85-1.18 10 10 0 0 0-4.72-.07c.67.11.56.47.05 1s-1.39 1.17-2.27 2a33.89 33.89 0 0 0-4.7 6.5c-.13-.48-1.21.14-1.73.47-3.09 4.26-5.42 7.57-7.67 10.83s-4.37 6.5-6.8 10.77c-.77.6-3.47 4.54-3.06 2.45a25.11 25.11 0 0 1-2 5.45c-3.94 4.56 3-6.07-.49-2.87.58.76-2.66 7.51-4.07 11.63 1.79-.58 4.77-8.75 6.41-12.81 1.67.9-.29 8.38-4 17.89-3.11 7.47-2.62 2.63-3 4-3.4 6.81-3.94 10.13-4.47 13.07s-1 5.52-4 11.1c-3 4.2-2.3-.67-3.52 0 2-6.33 4.56-9.11 6.28-13.24l-2.7 4.85a32.63 32.63 0 0 1 3.32-8.22c-1.36 1.7-4 7.59-6.83 14.45s-5.68 14.7-8 20.16c-.29 2.12-1 5.69 0 4.21l1-3.59c2-2.94-.93 7.06 1 2.74-.88 5-1.53 10.55-3.86 17.14l-1.67.91c.43 0 2-4.2 2.13-6.2-.12 1.48-1.26 3.95-2.28 6.49s-1.84 5.19-1.32 7c.66-1.52 1.41-3 2.11-4.52-.61 5-.54 11.28-2.17 17.2 1.84-2.47.13-1.43 2.57-5.36-1.35 1.64-.54-2.2.33-5.73s1.71-6.79-.06-4.09a21 21 0 0 0 2.82-5.77 31.93 31.93 0 0 1 3-6.74c-.48 0-1.42 1.74.27-3.13a6.75 6.75 0 0 1 0-1.2l.14-.32-.14.26v.1a9.74 9.74 0 0 1-1.43 2.31c-.13-1.38.45-4 1.08-6.69s1.41-5.32 1.64-6.72c1.22-2.84.06 1.38 1.07 0l.62-4.2c1.09-.06 4.37-7.09 2.43-.11.76-2 1.51-4.06 2.31-6.07a61.45 61.45 0 0 0 4.92-11.3c1.38-2.74 2-7.55 1.7-4.79q1.75-4.8 3.63-9.55h.27c4.37-9 7.66-19.42 15-28.52a68.14 68.14 0 0 1 6.2-10.88l1.32-.47a59.17 59.17 0 0 1 4.71-6.76l2.21-2.84a4.47 4.47 0 0 0 1-1.58 17.05 17.05 0 0 0 2-.51 3.07 3.07 0 0 1 1.21-.1 3.59 3.59 0 0 1 1.49.51 8.86 8.86 0 0 1 1.32.91c.22.19.45.39.66.6l.3.3.12.13.3-.22 1.19-.87c-3 2.19-.83.6-1.5 1.09l.43.55c2.18 2.49 4.19 4.82 5.54 6.66l1.06-.49c.82 1 1.64 2 2.5 3s1.77 2 2.59 3c1.71 2.12 3.56 4.32 5.67 6.82l.57-.91a30.73 30.73 0 0 1 3 3.72c1 1.43 1.91 3.14 2.92 4.89l3.09 5.5c.54.94 1.1 1.88 1.67 2.82s1.08 1.93 1.66 2.88c-.63-.33-1.63-2.35-2.34-3.78.24.63.52 1.24.78 1.87s.52 1.25.81 1.87c.58 1.23 1.22 2.43 1.91 3.61 1.38 2.36 3 4.64 4.52 6.9s2.88 4.62 4.15 6.93c.63 1.15 1.22 2.3 1.74 3.45q.39.87.72 1.73c.21.58.36 1.18.51 1.77a18.23 18.23 0 0 1 2.3 5.33 3.49 3.49 0 0 0-.28-.52c.09.23.23.56.38.91.26 1 .51 2.11.83 3.25a23 23 0 0 0-.62-2.77c.38.84.87 1.89 1.44 3l.9 1.77.87 1.86-.59 1.49.25.58c.56 2.66 1.23 1.85 1.48.21a30.07 30.07 0 0 0 1.87 3.19c-.43 1.33.33 3 1.12 4.71s1.41 3.66 1 5.36c.7.75 1.89 4 3.19 7.17s2.37 6.38 3.48 6.87c-.22.15-.13 1-.51-.47.28 1.52.55 3 .91 4.5.17.73.39 1.44.59 2.14a17.84 17.84 0 0 0 .68 2l-1.08 1.57 3.12 6.25c0 1 0 1.93-.07 2.62a4.15 4.15 0 0 1-.32 1.43c-.3.48-.72 0-1.6-1.94a78.77 78.77 0 0 1 2.39 8.39c.21.88.41 1.72.73 2.84s.73 2.53 1.32 4.57l-.92-.31c.32 3 2 7.6 1.42 9.46-.72 3.4-.12 11.6-.3 21.15 0 2.38-.09 4.85-.22 7.33s-.24 5-.44 7.48-.55 4.91-.87 7.25l-.49 3.44c-.21 1.11-.44 2.19-.67 3.24 3-3-2.14 7.71-.29 8.64-.78.89-1.52 3.17-1.58.37a75.27 75.27 0 0 1-1.87 10.34 25.9 25.9 0 0 0-1 8.48c-.81.83-.49-2-1-1.23 0 .35 0 1.06-.1 1.77a4.33 4.33 0 0 1-.57 1.82c-.59.76-.15-1.34-.14-2.74-2 8.56-.47 9.92 1.09 11-2.06 4.13-2.63 6.28-2.45 9.78-.49.67-1.14 1.57-1.42 1.64s-.2-.66.48-3.35c-.42 1.5-2.24 5.9-3.69 10s-2.93 7.91-2.32 8.34a20.26 20.26 0 0 0-2 4.78c-1.46 3.17-2.24 4.91-3.13 6.57s-1.66 3.36-3.17 6.43c.39-.51.72-1 1.07-1.58.19 1.62-.46 2.9-1.4 4.42l-1.62 2.5c-.3.47-.6 1-.91 1.49s-.68 1.07-1 1.67l-.07-.22c-1.94 2.52-3 4.11-3.76 5.17a19.81 19.81 0 0 0-1.65 2.29c-.68 1.14-1.24 2.43-5.65 6.79l1.25.14c.27.59-.09 1.38-.85 2.32a35.59 35.59 0 0 1-3.39 3l-1 .86c-.37.28-.76.54-1.15.82-.77.55-1.55 1.12-2.31 1.71-.38.29-.74.61-1.12.89s-.77.54-1.14.82a19.41 19.41 0 0 0-2.05 1.78l2.36-1.07a8.29 8.29 0 0 1-2.52 1.83l3.08 2.45c2.09-3.44 6.08-7.29 7.4-10.15.5-.76-.2 1.43-.5 2.64 2.54-4.77 2.34-5.22 1.81-5.41s-1.36-.14-.22-4c1.19-1.14 1.19 2.43 3.07-2.6a14.33 14.33 0 0 0 1.1-3.52c.38-1.67.83-3.72 1.21-6 .81-4.44 2-9.36 3.64-12.68-.48.7-1 1.39-1.29 1.45s-.38-.51-.12-2.36a96.22 96.22 0 0 1 3.47-9.86c1.29-3.56 2.19-7.16 1.9-9.85.32-.67.53-.9.68-.9.12-1.08.36-2.49.58-4l.59-4.91c.37-3.29.65-6.38.4-7.75 1.06-.83 1.75-2.93 2.23-5.6a65.69 65.69 0 0 0 .9-9c.13-3.12.24-6.11.53-8.28s.64-3.56 1.5-3.46c.29-4.45.71-8.88.78-13.34l.33.37c.7-8.53-.21-11.59-1-14.58.25-2 .56-.53.73-.36.64-12.46.35-13.78-2-24.06.35-.39.69-.78 1-1.17a20.06 20.06 0 0 1-.42-4.18l-.11-3.4c0-1.25-.07-2.6-.18-4-.21-2.84-.41-6-.87-9.15a73.87 73.87 0 0 0-2-9.32c.14.1.42.3.74 1.24a99.15 99.15 0 0 1-2.31-10.82c-.73-3.75-1.23-7.6-2-11.12-.36-1.76-.72-3.46-1.1-5a44 44 0 0 0-1.33-4.3c-1-2.57-2-4.51-3.37-5.39-1.28-2.77-2.46-5.56-3.81-8.28 3.43 11.18-2.17-1.1-1.28 3.68-1.69-4.23-2.82-11.55-.72-6.33l.11.9c1.31.63.34-2.88-1-6.51-.65-1.82-1.33-3.68-1.77-5.1s-.67-2.39-.3-2.45c-4.4-10.67-9-21.09-13.82-31.18-1.22-2.51-2.43-5-3.67-7.5l-.93-1.85-1.39-2.7-2.92-5.53-6-11.14-.19-.35v-.09.07l-.1.15-.39.59-.78 1.18-1.57 2.36-3.13 4.74a9.93 9.93 0 0 1 2.21-.42l-5.26 7.89c-1.57 1.72-2.74 1.87 1.39-4.34-1.26 1.09-3 4.05-4.16 6.52s-1.93 4.53-1.75 4.6c-3 4.33-2.85 3.21-2.2 1.33.16-.47.36-1 .55-1.47a13 13 0 0 1 .62-1.45c.48-1 .66-1.41 0-.44l-.42.67c-.16.24-.2.34-.3.52l-.54 1-1.07 1.92.67-.75c-1.25 3.4-.81 4-4.18 9.53-2.37 3.34-1.94 1.3-2.82 2.65-.08-.06-.46.35-1.27 2.12l-4.65 8.29 2.94-2.73c-1.45 4-4.3 7.8-.94 4.65a17.41 17.41 0 0 0-2.2 2.64c-.41.58-.85 1.22-1.3 1.92s-.86 1.47-1.31 2.27c-1.78 3.22-3.74 7.11-5.61 10.94-1 1.9-1.74 3.88-2.55 5.71l-2.2 5.13c-1.33 3.1-2.42 5.41-2.89 6.29A71.51 71.51 0 0 1 255 283c-.5 1.46-1.05 2.95-1.63 4.49l-1.65 4.89c.81-1.62 2.51-2.16.42 3.66-1.07-1.53-2.26 1.07-3.64 4.58-1.22 3.57-2.55 8.05-4.26 10.22.64-1 .69-.42.47.91-.1.67-.31 1.51-.49 2.46l-.54 3c-.73 4.06-1.31 7.8.44 4.57-1.35 5-1.16.07-2.7 3.8-.33 3.1-.7 6.35-1.29 9.68s-1.1 6.81-1.66 10.38l-.83 5.43-.54 5.58c-.17 1.88-.33 3.77-.46 5.68s0 3.84 0 5.77c.39.24 1-2.32 1.56 1l-1 4.06c-.32 1.36-.56 2.72-.84 4.1a9.21 9.21 0 0 0 1.17 3.2 5.38 5.38 0 0 1 .41 1.88 18.76 18.76 0 0 1-.26 3.24c.26-.81.65-2 1 0 .16 15.08 3.43 30.35 8.21 45 .6 1.84 1.28 3.65 1.92 5.47l1 2.74c.32.91.7 1.8 1 2.7l2.09 5.41 2.24 5.35c3 7.11 6.19 14.16 9.43 21.22-1.44-4 0-1.6 1.68 1.07-.95-1.84.85-.47 1.08-1.09 1.83 3.87 3.77 7.72 5.86 11.49 1.28.53 3.3 3.3 5.35 5.9s4.08 5.06 5.06 5.11c-.94-1-1.84-2-2.76-3 2.34 1.57 1.86-.49 1.12-3s-1.67-5.51-.58-5.84a13.19 13.19 0 0 1-3.28-3.84c-1-1.61-1.83-3.5-2.8-5.44a60.57 60.57 0 0 0-3.1-6 26.65 26.65 0 0 0-4.31-5.72c-.62-2.07 1.45 1.25 1.35 0a14.25 14.25 0 0 1-2.76-3.34 25.35 25.35 0 0 1-1.39-2.53c-.45-1-.92-2.09-1.43-3.35l.47.45c-1.78-3.37-3-6.39-4.2-9.17s-2-5.45-2.92-8.12-1.6-5.5-2.49-8.62l-1.22-5-.69-2.77-.63-3-.72 1.49a34.17 34.17 0 0 1-.75-6.15c-2.56-3.73 2.36 10-.26 6.73a20.65 20.65 0 0 0-.54-6.22l-1.62-8.89c-1-6.19-1.73-12.24-.59-14-.5-5.6-1.06 1.77-1.57-3.85l.52-1.54-1-1.36c0-3.72.73-5.61 1.28-5.77 0 .9.26 2.53.35 3.48a50.78 50.78 0 0 0-.14-8.71c-.1-3-.27-5.55-.13-6.37l-.47 5.39a163.43 163.43 0 0 1 1-24.64L248 341c.24-2.09.6-4.14.87-6.17s.54-4 .76-6 .59-3.86.81-5.72l-.73 1c1.52-11.4 2.57-8.81 5.42-21v.47a42.74 42.74 0 0 1 2.2-9.09c-.43 3.2 2.93-5.32 2.25-1.15.37-1.51.64-2.74.9-3.74l.65-2.4a13.91 13.91 0 0 0 .46-2.41 34.62 34.62 0 0 1 .46-5.83l1.44-1.47A22.26 22.26 0 0 1 264 274a42.58 42.58 0 0 1 1.95-5.69c-1.41 5 2.76-3.19 1.31 2.49a56 56 0 0 0 3.94-7.79c1-2.34 1.85-4.41 2.55-6.29 1.44-3.75 2.59-6.68 5.09-8.8.43-3.19-1.26-.85-2.71 2s-2.91 6.07-2.39 4.43c-1.91 2.25.63-5.29 2.75-8.91 1-1.86 2.54-3.11 4.42-5.05a36.47 36.47 0 0 0 3.07-3.61c.55-.74 1.13-1.57 1.72-2.51l1.9-3.11c-.55.91-.45 1-1 2 2.51-3.13 3.3-7.09 6.61-10.8a9.84 9.84 0 0 1 1.6-4.05c.17-.29.32-.57.45-.84a2.23 2.23 0 0 0 .22-.6 1.48 1.48 0 0 0-.24-1.13c-.52.88-1.39 2.51-2.15 3.91l-2.33 4.3c.61-1.25 1.12-2.53 1.64-3.87l.79-2 .42-1.06.41-1a32.83 32.83 0 0 1 2-4 28 28 0 0 1 3-4.11 45 45 0 0 1-1.85 4.83 7.66 7.66 0 0 0 1.62-2.32 7.23 7.23 0 0 1 1.61-2.3c0 1.69-1 3.39-2.27 5.35-.61 1-1.29 2-1.87 3.08-.14.26-.28.52-.41.77l-.53 1.1a21.69 21.69 0 0 0-.91 2.29 10.65 10.65 0 0 0 1.61-2.42c.32-.6.39-.76.55-1.1l.41-.9a3.6 3.6 0 0 1 .7-1.16c.19-.12.29.14.37.9a7 7 0 0 1 1.94-4.8 18.68 18.68 0 0 0 1.56-2.17c.13-.23.27-.47.41-.74s.12-.09.17 0l.16.14a1.83 1.83 0 0 0 .77.35q-.21.71-.4 1.48a3.49 3.49 0 0 1 .65.37 3.14 3.14 0 0 1 .85 1 1.82 1.82 0 0 0-1.4.3c.34 0 .67.44.9.93a6.14 6.14 0 0 1 .47 1.58v.28l.09.23.38 1c.26.65.52 1.29.81 1.92a22.67 22.67 0 0 0 2 3.67c-5.46-10.32-.1-2.94-1.72-7.64a35.08 35.08 0 0 1 3.72 6.67 14.68 14.68 0 0 1 .95 3.95c.31 2.41.65 5 4.33 12.16-1.06-1.9-3-7.63-1.05-4.78a47.8 47.8 0 0 1 2.77 8.62c4.55 9.61.35-2 2.79 1.92.26 3.86 2.64 4.56 4.78 8.75l-1 .44c2 5.73 2.75 6.3 3.51 6.71s1.46.68 3 6c-1-1.29-2-2.55-3-3.81.82 1.72 1.59 3.46 2.34 5.21l-1.54-.69a43.68 43.68 0 0 1 3 6.51c.64 1.91 1.12 3.85 1.9 6.78.14-.78.67-.74 1.37.14a17.66 17.66 0 0 1 2.29 5.2c.22 1.85-.18 1.43-.33 1.45s0 .48 1 4.15a13 13 0 0 1-1.59-2.53 9 9 0 0 1-.8-4c-.43-.23-1.13-1.43-1.56-1.66a37.67 37.67 0 0 0 1.55 6.58c.64 2.23 1.34 4.29 1.69 5.61a19.9 19.9 0 0 1-.52-2.93c.7 1.71 1.43 3.41 2.12 5.14l2 5.2c0 1.78-.63.51-1.25-.75.61 2.15 1.48 3.54 2.19 6.75a5.56 5.56 0 0 1-1.48-.94A10.94 10.94 0 0 1 337 302c.57 1.65 1.07 3.33 1.56 5l1.5 5c-.2.75-.14 5.47-.67 4.18.21 2.89 1.25 6.3 2.09 10 .44 1.85.9 3.76 1.24 5.69a41.87 41.87 0 0 1 .5 5.83 10.37 10.37 0 0 1 .73 2.78c.18 3.61 0 7 .11 10.61a69.46 69.46 0 0 0 .76 11.58l-1.62 4.85c.28 6.71 2-6.57 2.51 4.64.15 8-1.47 2.91-2 5.67l.52 3.49a33.26 33.26 0 0 1 .37 4.36 34.79 34.79 0 0 1-1.11 10.32c-.01-2.44.32-4.31.41-6.56zm-16.32 81.42c.35-1.59.56-4.9 1.53-5.83.62 2.12-.3 3.33-1.53 5.83zm44.43-58a12.72 12.72 0 0 1-1.53 5 26.76 26.76 0 0 1 1.52-5zM259.79 250.52a1.33 1.33 0 0 0 0-.18c1.74-3.19 1.11-2.07 0 .18zm-3.14 6.81c-.12.76 0 .76.29.52a12.26 12.26 0 0 1 1.26-3.92c-.45.38-.98 1.22-1.55 3.39zm22.74-29.27l1-1.14a9.84 9.84 0 0 1-1.11 2.07c-.1.01 0-.46.11-.94z" transform="translate(-6.51 -167.94)"/>
  <path class="cls-7" d="M369.43 427.44a1.13 1.13 0 0 1-.76.5c-.02.68.18.76.76-.5zM343.27 338v-.25a.57.57 0 0 0-.22-.23zm-24.41-160.64a13.44 13.44 0 0 1 1.51 2.71c.25-.07-.03-.8-1.51-2.71zm-72.2 118.2l.9-4.68a18.82 18.82 0 0 1-1.4 4.07c.28-.04.84-.83.5.61zm-13.58 39.92c.06.72-.13 1.5-.07 2.21l.52-.15c.26-3 .07-5.15-.45-2.06zm9.09-36.48c-.48.08-.83.88-1.12 2.07s-.49 2.78-.76 4.45c0-.2.07-.39.12-.58 1.06 1.27 1.34-2.33 1.76-5.94zm-2.01 7.33c-.18 1-.34 2.07-.58 3.06.42.49.33-1.22.58-3.06zM254 266.45c-.74 1.43.76 1.31.13 2 .5 2.09 2.18-10.45-.13-2zm-15.35 34.6l1.35-.94-.44-2.05c-.3 1-.63 1.99-.91 2.99zm7.71-25.69c-.65 1.69-1.25 3.4-1.86 5.1.2 0 .11.67 0 1.5l1.43-4.51c.36-1.25.6-2.1.43-2.09zm-1.91 6.64a23.51 23.51 0 0 0-1 4.25c.25-.95.72-2.91 1-4.25z" transform="translate(-6.51 -167.94)"/>
  <path class="cls-7" d="M233.51 125.8l.62-1.5 1.03-3.7-1.65 5.2z"/>
  <path class="cls-7" d="M268.15 221.38q1.15-2.73 2.36-5.44c-.07-.71-1 .62-1.86 2.66-.39 1.4-1.23 3.4-.5 2.78zm-10.3 15.02a6.83 6.83 0 0 1 1.83-2.06l-1.19-.73zm6.98-15.93c-.09-.7 2.85-8.27-.43-1.43.07.71-2.24 6.23.43 1.43z" transform="translate(-6.51 -167.94)"/>
  <path class="cls-7" d="M315.26 18.95l-.97-1.15-1.64 1.58 2.61-.43z"/>
  <path class="cls-7" d="M366 253.1c-1-3.48-1.55-3.71-2-3.9s-.84-.3-1.81-3.4c-1.16-1.33 1.6 5.07.48 3.66 1.16 1.86 1.71 3.41 2.2 4.14s.83.7 1.13-.5z" transform="translate(-6.51 -167.94)"/>
  <path class="cls-7" d="M362.74 249.45c-.36-.6-.75-1.23-1.19-1.89a16.84 16.84 0 0 0 1.19 1.89zm-85.36 243.18l2.54 3.93-1.29-2.82c-.42-.37-.84-.74-1.25-1.11zm6.93 5.81l-.38 1.77 2.81 1.22a12.14 12.14 0 0 1-2.43-2.99zm36.49-16.83l.22.44c.58-.52.94-1.5 1.67-3.45z" transform="translate(-6.51 -167.94)"/>
  <path class="cls-7" d="M331.42 256.04l-.23 1.01 1.65-1.66-1.42.65z"/>
  <path class="cls-7" d="M342 373.93c-.15 2 0 4.45-.13 6.5.02-4.43 1.83-7 .13-6.5z" transform="translate(-6.51 -167.94)"/>
  <path d="M254.32 482.49s-74.67-2.35-120.38-84.49c-35.65-66.85-32.46-128.28-32.46-128.28S103 251.11 126 258.45c55.57 17.57 110.33 58.6 138.46 115.4 0 0 26.45 53.95 26 121.61C267.68 408 228.15 329.2 132.88 292.37c1.65 69.89 41.53 168.52 121.44 190.12z" transform="translate(-6.51 -167.94)" fill="url(#linear-gradient-4)"/>
  <path class="cls-7" d="M254.52 476.89c1.51.55 1.21-.52 1.48-.61-2.6-.59-1.49.86-1.48.61zM229 468.73l.6-.11c-.66-.17-1.33-.33-2-.52l-1.94-.62c1.16.44 2.25.9 3.34 1.25zm-20.81-14.22a4.78 4.78 0 0 0 1.54 2.1 28.34 28.34 0 0 0 2.88 2.07c1.09.69 2.21 1.45 3.33 2.12a21.4 21.4 0 0 1 3 2.13l.42.72 2.38.07c-1.15-.72-2.41-1.47-3.71-2.22s-2.63-1.5-3.83-2.34a34.82 34.82 0 0 1-6.01-4.65zM200.6 443c.07.51-.53.09-.59 0l2.68 2.22c-.17-.25-.21-.34-.3-.5a23 23 0 0 1-1.79-1.72z" transform="translate(-6.51 -167.94)"/>
  <path class="cls-7" d="M202.39 444.78c1.94 1.75-.89-1.54 0 0zm-8.64-8.47c.91.73 1.79 1.49 2.71 2.2-.24-.76-2.19-3.13-1.24-2.45-2.56-2.43-2.36-1.66-1.47.25zm-3.06-1.7l1.37 1.2c-.06-.34-.36-.73-1.37-1.2zm4.31 3.73l-2.9-2.53c.14.55-.21.93 1.3 1.2-.59.08.25.34 1.6 1.33zm1.27 1.74c1.1 1.63 2.71 3.6-.12 1.47 4.85 4.64 4.85 3.12.12-1.47zm9.88 14.85l1.74 2.08c.69.38 1.43.67 2.15 1-1.13-.42-3.69-3.58-3.89-3.08zm-25.08-36.06c-.4 0-.08 1.48-.29 1.94.58.64 1.2 1.25 1.82 1.86-.6-1.16-1.84-3.37-1.53-3.8zm-.29 1.95l-2.66-2.82c1.88 2.85 2.48 3.21 2.66 2.82zm8.16 14.48l5.14 4c-2-1.62-4-3.21-5.94-4.9.26.27.51.6.8.9z" transform="translate(-6.51 -167.94)"/>
  <path class="cls-7" d="M166.69 238.58l1.76 1.48-2.96-2.75 1.2 1.27z"/>
  <path class="cls-7" d="M168.32 398.1c1.33 1.11-.07-2.46 1.08-1.15a44.14 44.14 0 0 0-4.19-5.64 28.26 28.26 0 0 1 3.11 6.79zm-5.27-9.54a32.09 32.09 0 0 0 2.16 2.76 21.31 21.31 0 0 0-2.16-2.76zm11.61 23.79a5.25 5.25 0 0 0-.8-3.08v1.78zm-.8-1.23v-.06c-.88-1.4-1.44-2.4-1.67-2.83.2.36.68 1.25 1.67 2.89zm1 1.56l-.2-.33c0 .17.02.27.2.33zm8.39 14.11c-1.78-1.5-5.11-5-3-.82 1.51.94.3-1.45 3 .82zm-8.38-11.87c.66 1.22 1.37 2.39 2.1 3.57.16-.21 0-1 .9-.24-1.01-1.09-2.04-2.19-3-3.33z" transform="translate(-6.51 -167.94)"/>
  <path class="cls-7" d="M167.03 245.43l1.33 1.55-.75-1.34-.58-.21z"/>
  <path class="cls-7" d="M165.36 395.27a30.81 30.81 0 0 1-3.09-5.08c.88 2.19 1.86 4.44 2.91 6.51.43.13 1.35.8.18-1.43zm3.88 7.84l-.24-.32c0 .21.13.43.24.32zm-15.42-32.91v.39h.18z" transform="translate(-6.51 -167.94)"/>
  <path class="cls-7" d="M165.21 397.12a9.08 9.08 0 0 0 2.12 3.23c-.71-1.12-1.43-2.33-2.15-3.66-.18-.07-.28-.05.03.43zm-5.05-13.86c.2.92.48 1.94.79 3-.1-.94-.43-2.8-.79-3zm8.79 18.88l.16.21c-.11-.61-.11-.5-.16-.21zm0 0a16.82 16.82 0 0 0-1.62-1.79c.58.92 1.14 1.75 1.67 2.44a3 3 0 0 1-.05-.65zM145.83 366c1 0 3.23 4.25 3.86 8.41 2.06 3.55 3.81 0 4.1-3.81-.2 0-.39 0-.76-.38a14.68 14.68 0 0 1-1.87-3.16c-.05 1.54 2.17 8.94.16 6-2.4-5-1.26-4.32-1.72-7-.15 1.25-1.1-.26-2.16-1.89s-2.15-3.4-2.75-2.58c.65 1.49 1.38 2.95 2.09 4.41-.22.18-1.18-1.36-.95 0zm10.71 11.87l.75 1.51a24.18 24.18 0 0 1-1.07-5.82c-1.39-2.45-1.91-2.87-2.25-3 .95 2.59 1.86 5.2 2.92 7.74zm3.78 8.42c-1.41-.79-3.47-4.33-3.39-1.65 2.12 4.51 2.17 2.84 3.78 5.36-3.52-7.17 1.43 1.86-.46-3.62.81 1.35 1.4 2.63 2 3.79-.53-1.33-.94-2.66-1.32-3.91v.19c0 .36 0 .49-.08.11a.9.9 0 0 1-.09-.14 1 1 0 0 1-.48-.18c-.77-2.18.08-.43.48.18h.17l-1.89-3.51c-.62-1.18-1.19-2.38-1.79-3.57.26.8.61 1.69 1.07 2.8s1.18 2.46 2 4.15zm15.68 37.4c-.07-.26 0-.29 0-.34-.31-.35-.49-.48 0 .34zm-1.36-3.08a6.7 6.7 0 0 1 2 2.23c.7 1.53-.38.26-.59.51.86.82 2.87 2.91 1.18-.32l-.43-.4a34.35 34.35 0 0 1-2-4.51c-.49-1.32-.65-2.29-.46-2.08a9.74 9.74 0 0 0 .3 4.57zm-8.27-17l-3.58-5.68.88 3.4.36-.39c1.63 3.46 1.78 2.44 2.34 2.67zM154 369.33l1.26.47q-1.37-1.52-2.66-3.1c.46.87.9 1.76 1.4 2.63z" transform="translate(-6.51 -167.94)"/>
  <path class="cls-7" d="M144.51 193.3l.94.02-1.19-2 .25 1.98z"/>
  <path class="cls-7" d="M243.87 349.9l-1.31-1.45a16.61 16.61 0 0 0 1.31 1.45zm7.65 11.78l.55.07c-.55-.43-.83-.57-.55-.07zm-12.91 22.82c.84 2.85 1.43 6.19 2.09 5.38l.35-1.25a19.46 19.46 0 0 1-2.44-4.13zm50.64 86.76l-.24.87 1 1.88zm-4.18-1.67l.22-3.81a29.58 29.58 0 0 0-.22 3.81zm-96.2-172.71l-2.42-.49c2.9 2.02 1.91.73 2.42.49zm-41.55 7.43a54.41 54.41 0 0 0 5.22 3.22c-2.39-1.79-4.16-3.64-5.22-3.22zm108.24 44.44c-.86-.93-1.32-1.25-1.48-1.1.86.96 1.43 1.45 1.48 1.1zm-96.78-37.95c-.33-.29-.68-.54-1-.82-.82-.35-1.64-.73-2.5-1.12s-1.76-.81-2.73-1.32a22.14 22.14 0 0 0 2.89 1.9 12.05 12.05 0 0 0 3.34 1.36zM164.7 431c.1.18.25.37.34.54.13 0-.04-.21-.34-.54zm64.71 51.16c-.82-.19-2.16-.54-3.39-.94a17.69 17.69 0 0 0 3.39.94zM142.8 327.61c.41 1.78.16.26 0 0zm-1.95 9.52c-.19-.36-.39-.62-.62-.62a1.23 1.23 0 0 1 .62.62zM177.64 315l.13.09c-.36-.42-.3-.34-.13-.09zm-34.75 15.39c0-.7-.07-1.49-.16-2.35-.01.39.04 1.1.16 2.35zm.38-.45l.21 1.58c.2.2.26-.02-.21-1.58zm-.99-4.82c.18 1 .34 2 .44 2.92 0-.36 0-.52.07-.43-.1-.52-.29-1.26-.51-2.49zm-36.67-29.5v.4c.55 1.81.39.98 0-.4zm164.77 126.8c0-.08-.09-.11-.13-.18l.08.27zm3.34 5.96a11.46 11.46 0 0 1-3.39-5.87l-1.67 3.17z" transform="translate(-6.51 -167.94)"/>
  <path class="cls-7" d="M222.13 324.24l2.55 3.9c-4.87-3-7.25-6.18-5.17-2.26.65-.41 1.76.16 3.1 1.24.67.54 1.4 1.2 2.15 1.92l1.15 1.13 1.11 1.23c3 3.3 5.93 6.59 7.31 5.88.5.9.92 1.85 1.39 2.77-.51-.7-.73-.7-1.23-1.39 1.24 2.77 2.33 3.28 3.66 3.9a10.35 10.35 0 0 1 2.23 1.29 10.87 10.87 0 0 1 1.33 1.25 11.12 11.12 0 0 1 1.47 2c1.33 2.32 2 4.09.7 2.81l4 4.43c.93 1.45.25 1.39-.67 0l1.33 1.82 1.22 1.89 2.45 3.77h-.11a42 42 0 0 1 4.21 4.06c.7 2.24-.82-.86-.87-.15l3 4.06c.26 2.17-2.34-1.13-3.88-4.2-.19 2.78.43 3.59 1.54 4.92a19 19 0 0 1 1.95 2.7 21.39 21.39 0 0 1 1.13 2.22 11.06 11.06 0 0 1 .53 1.37c.15.49.32 1.07.47 1.66-.37-.65-.76-1.37-1.11-1.93l-1.27-2a8.71 8.71 0 0 0 .31 2.51q0 .27.11.55l.17.63c.12.43.26.86.41 1.31l1 3c.32 1.09.64 2.27.89 3.58 0-.67-.35-3.38-.44-5.3s.18-3.14 1.6-.83a19.14 19.14 0 0 0 2.74 5.86c-1 .44.33 3 1.62 6.31l-1.42.27c1.7 3.48 2.32 2.94 3.66 4.88 1.26 4.15.51 5.34-.06 6.59 1.84 6.65.26-5.1 3 2.63.3 1.42.64 2.71 1 3.95s.74 2.45 1.19 3.67c.88 2.45 2 5 3.24 8.23.51 4-1-.47-1.06 1l2 3.2c.19.86-.22.66-.43.57 1.16 2.83 1.46-.1 2.88 4.47.9.46.87 3 1 6s.15 6.69 1.57 9.43c-.14 1.49-1-.54-1.45 0 .68 1.92 1 3.32 1.37 4.41s.56 1.88.8 2.63c.47 1.5 1 2.8 2.23 6l-.33 5.73c.62-4.25 2.46.88 4 5.48.39-1.53.68-2.84.81-3.71.25 1.24.54 2.47.76 3.72l.62 3.74c-.18.93-.71.2-1.38-1 .15.5.3 1 .43 1.35-.35 2.72-1.26 1.37-2.18-.48.22-.93.46-1.85.71-2.76-1-1.78-2.17-3.39-2.93-2.94a10 10 0 0 1 .62 2.39c-.26-.46-.5-.75-.62-.51s.23 1 .67 2.19l-1.48 1.8.66.36-.19 4.86c-.06 1.62-.11 3.23-.28 4.84.85 3.39 1.88 6.58 2.82 10.32l4.26-.53a91.18 91.18 0 0 1-5.7-12.84c1.87 2.35 2 .06 3.36-.18-.51 3.07 2.39 7.44 3.79 12.58l-7.53.94v-1.34a9.13 9.13 0 0 1-.12 1.34l7.76-1c-.11-1.41.47-1 .81-.44-1.34-3.23-2.62-6.47-4-9.67 1.15-.08.22-2.35-.07-5.09-1.56 2.58-3.58-7-5.51-10.84.63-.47 1.71.26 3 5.25a8.8 8.8 0 0 0-2.38-6.07 9.58 9.58 0 0 1-2.6-5.91c.42 1.19.5 1.87 1 2.23-1.51-2.6-3.33-9.55-2.16-8.17l.41 1.19c-.58-2-1.43-4.51-2.39-7.14-.48-1.32-1-2.67-1.5-4s-1.09-2.64-1.64-3.9-1.08-2.46-1.61-3.55-1.07-2.07-1.56-2.9c-1-1.66-1.8-2.73-2.36-2.84a7.3 7.3 0 0 1 3.07.48c-1.89-1.92-3.86-3.8-5.81-5.65l-2.96-2.74-3-2.71c2 .53 3.46-5.68 7.18.27a29.87 29.87 0 0 0-3.69-7.87c.4 1.33-.71 4.08-1.61 2.45-.57-5.37-.63-3.6-2-9.94.63 2-2.7 1.1-4.1-1.78.57.27 2.11-1.4 2.89-.47-2-2-3.94-4-6-5.91 1.36 1.53 2-.71 1.78-2.63 0 .49-.85-1-1.83-2.92s-2.25-4-2.9-4.89l1.24 3.24a20.54 20.54 0 0 0-3.07-4.43 19.32 19.32 0 0 0-3-2.45 21.35 21.35 0 0 1-6.35-6.48c1 .6 4.16.46 1.84-3.53l-2.63-1.17c-1.18-.51-2.58-1.15-4.08-1.94a52.69 52.69 0 0 1-4.65-2.77 28.58 28.58 0 0 1-4.53-3.62l-.34-1.64-4.46-4.05a69.93 69.93 0 0 1 8.86 4.7c1.74 1.08 3.56 2.19 5.18 3.33s3.09 2.25 4.27 3.21c-1.53-3.11.15-1.28-2.92-5.39-.53-1.87 2.49 1.64 3.41 2.85-2.18-3.36-4.56-6.58-6.9-9.85-.81 1.32-7-6.11-7.66-4.94 3.15 3 6.35 5.94 9.37 9.09-.43.66-2.42-.17-4.9-2a37.91 37.91 0 0 1-4.09-3.32c-.7-.66-1.41-1.36-2.1-2.1s-1.41-1.49-2.08-2.29c-1-2 3.06-.58 3.33-1-1.13-.48-6-5.34-6.37-6.1 1 .67 2 1.36 3 2.08-1.34-2-3.1-3-4.77-4.18a19.51 19.51 0 0 1-2.5-2 14.74 14.74 0 0 1-2.42-3c-1.33-1.42-2.87-5.47-3.76-5 1.21 3.42-2.07 7.69-4.41 7.19-.39-.52-6.25-7.9-7.48-9.87-1.59-3.06 5.72.6 4.39-2-.36.24-2-.51-2.71-.85-1.35-1.57 1.46-.44-2.08-3.13-1.5.69-7.07-5.6-2.44-.29a20.07 20.07 0 0 1-3.62-2.76 26.41 26.41 0 0 0-4-3.25c.37.87-1 .88-3 .43a32.69 32.69 0 0 1-6.39-2.33c.42-.18-.1-1.13-.37-1.57-1.83-1.21-3.38-2.38-4.9-3.36l-4.25-2.87-2.06-1.39-2.17-1.32c-1.49-.89-3.08-1.81-4.87-2.8-.47-.71-3.85-2.84-2-2.68a16.92 16.92 0 0 1-4.68-1.41c-3.84-3.37 5.17 2.34 2.5-.74-.34.32-2-.14-3.91-.82l-6.32-2a4 4 0 0 0 1.73 1.3 20.9 20.9 0 0 0 2.94 1.29c2.25.83 4.84 1.72 6.59 2.27-.42.84-2.25 1-5 .59-1.34-.23-2.95-.51-4.71-.94l-1.35-.34c-.46-.12-.73-.16-1.1-.25-.69-.16-1.36-.32-2-.5-2-.59-2.59-1.14-2.8-1.59s.13-.7-.24-.7a29.56 29.56 0 0 0-3-1.17l-.56-.17-.26-.07H135v.18q.11.71.24 1.34a25.79 25.79 0 0 0 1.19 4 24.69 24.69 0 0 1 1 2.77 6.13 6.13 0 0 1 .17 1.39v2.63c-.77 4.24-2.35.43-3.12 1.43a27.06 27.06 0 0 1-.44-3.64 27.66 27.66 0 0 1 .08-2.8 35.11 35.11 0 0 0 .24-4.48c-.17 1.13-.27 2.36-.36 3.68a21.75 21.75 0 0 1-.7-3.75 14.91 14.91 0 0 1 0-3.59 14.61 14.61 0 0 0-.32 4.45c0 1.16.11 2.49.19 3.92s.17 3 .34 4.53l.45 4.72.54 4.74c.3 3.12.72 6.07.86 8.55.65 1.67 1.69 4.54 1.87 3.06-.25-1-.51-2-.72-3 .25-1.49.81-.1 1.29 1.15s.94 2.38.79.42c.73 2 1.57 4 2.31 6.33a38.89 38.89 0 0 1 1.88 7.68l-1.06 1.38c.18-.11.13-1.08 0-2.21a11.27 11.27 0 0 0-.82-3.19c1.06 2.23.29 9.15 2.71 11.27-.06-1.39-.07-2.8-.1-4.19.42 1 .9 2 1.4 3s1.07 2.12 1.59 3.23 1 2.27 1.44 3.45a28.12 28.12 0 0 1 1.06 3.73c.61-2.62-.55-1.07 0-5-.51 1.79-1.38-1.36-2.2-4.27s-1.44-5.63-1.84-2.92a13.76 13.76 0 0 0-.05-5.38 25.2 25.2 0 0 1-.28-6.15c-.39.24-.5 1.86-1.15-2.37a5 5 0 0 1-.57-.84v-.29.24c-.1-.17-.12-.18 0 .09a6.63 6.63 0 0 1-.26 2.28 19.75 19.75 0 0 1-2-5.29c-.64-2.19-1.07-4.44-1.54-5.54-.2-2.56.68 1 .93-.48-.44-1.09-.92-2.19-1.33-3.29.94-.5.75-6.92 2.12-1.08l-.67-5.33a40.41 40.41 0 0 0 0-5.29l-.07-1a2.51 2.51 0 0 0 0-.34 2.54 2.54 0 0 0-.25-.68c.09-.3-.24-.9-.47-1.43s-.38-.8 0-.06l-.39-1.8-.1-.5a.7.7 0 0 1 0-.12h.21l.62.08.22.36a11 11 0 0 0 2.15.68l1.21.33.33.09.21.07.39.15 1.55.61a49.2 49.2 0 0 1 6.13 2.88 35 35 0 0 1 5.88 3.89 45.67 45.67 0 0 1 9.16 4.86l.34 1.21a26.62 26.62 0 0 1 2.76 1.64c1 .68 2 1.47 3 2.18 2 1.45 3.75 2.67 4.63 2.74a11 11 0 0 0 3 3.43c.73.61 1.54 1.24 2.42 1.88l2.7 2 2.84 2 1.41 1 1.33 1c1.74 1.35 3.31 2.61 4.45 3.68l.92-.71c3.19 2.93 6.54 5.41 10.69 8.89l.46-.94c4 2.65 7.92 9.07 12.82 14.55-.59-.15-1.78-1.59-2.49-2.74a24.22 24.22 0 0 0 1.78 3.03 30.92 30.92 0 0 0 2.06 2.7c1.47 1.73 3.13 3.34 4.69 5s3.21 3.24 4.56 5a25.67 25.67 0 0 1 3.39 5.33 12.5 12.5 0 0 1 2.71 4 2.45 2.45 0 0 0-.32-.38c.1.18.27.43.45.69.35.83.69 1.69 1.11 2.59a16.32 16.32 0 0 0-.86-2.23c.44.63 1 1.41 1.65 2.26s1.32 1.79 2 2.69l-.39 1.4.31.43c.86 2.1 1.4 1.26 1.44-.18a28.62 28.62 0 0 0 2.15 2.25c-.57 2.47 3.61 4.89 3.21 8 .77.46 2.31 2.9 4 5.26s3.24 4.71 4.37 4.82c-.18.18 0 .84-.56-.26 1 2.37 1.9 4.81 3.41 6.65l-.75 1.57c1.39 1.41 2.69 2.87 4 4.33.67 3.47.8 4.94-1.56 2.29A49.65 49.65 0 0 1 265 430a55.44 55.44 0 0 0 3.46 5.45h-.94c1 2.3 3.56 5.57 3.39 7.25a34.23 34.23 0 0 0 1.7 6.73c.9 2.95 2.18 6.44 3.4 10.25a168.82 168.82 0 0 1 6.36 23.42c1.73-3.38.71 6.72 2.76 6.74-.38 1-.2 3-1.31.89a47.37 47.37 0 0 1 1.69 6l9 40.77 1.09-42c.1-3.76.38-6.63-.82-10.06.6-.88.93 1.58 1.28.81-.14-.6-.58-2.37-.22-3.17s.54 1.08.82 2.27c0-1-.09-1.82-.17-2.58a18.78 18.78 0 0 0-.39-2 8.29 8.29 0 0 0-1-2.56 3.82 3.82 0 0 0-2.63-1.67c.58-3.9.4-5.84-1.09-8.49.44-1.38.8-3.68 1.51 1-.1-1.33-.32-5.4-.69-9.16s-1.16-7.15-1.86-7.19c.24-.88-.44-3.69-.7-4.36-.94-5.89-.93-6.43-2.14-12.16 0 .54.06 1.09.08 1.64-2.1-1.93-1.39-4.67-2.59-9.23l.2.09a41.75 41.75 0 0 0-.83-5.41 14.68 14.68 0 0 0-.66-2.17 12.79 12.79 0 0 1-.7-2.1c-.21-1.08-.49-2.67-.89-5.33l-.87.85c-1.24-.17-1.56-2.52-1.88-5.55s-.8-6.73-2.21-9.53c0 .77.1 1.54.12 2.31-1.78-2.94-.05-10-1-13.3-.07-.77.71 1 1.21 1.93-.91-4.46-1.35-4.61-1.88-4.41s-1.14.73-2.51-2.32c.24-1.43 2.39.78.83-3.48-.15-1.17-1.95-4-4-7.25l-.81-1.3-.83-1.22a44.54 44.54 0 0 1-1.56-2.49 20.65 20.65 0 0 1-2.18-4.87c.14 1.49.25 2.95-1.59.42a18.63 18.63 0 0 1-.88-1.72c-.31-.61-.63-1.26-1-1.94l-2-4.28a35.27 35.27 0 0 0-2.18-4.07 9.48 9.48 0 0 0-2.72-2.8c-.21-.59-.22-.86-.11-1-1.23-1.37-3.08-3.69-4.88-5.81a25.28 25.28 0 0 0-4.8-4.45c.22-1.23-.64-2.89-2-4.73a52.12 52.12 0 0 0-5.26-5.51c-3.71-3.69-7.46-6.68-6.2-7.84-2.64-2.64-5.21-5.35-8-7.8l.45-.05a43.34 43.34 0 0 0-5.93-5.14 21.89 21.89 0 0 0-4-2c-1.1-1.24 0-.7.24-.75-3.75-3.64-5.83-5.64-8.07-7.09a64.34 64.34 0 0 0-8.4-4.57l-.09-1.41c-1.16-.42-4-2.92-7.7-5.94-1.89-1.45-4-3-6.28-4.42-1.12-.73-2.27-1.43-3.43-2.09a37.42 37.42 0 0 0-3.57-1.68c.15-.06.44-.14 1.23.13a58.29 58.29 0 0 1-8.11-4.46c-2.77-1.6-5.51-3.33-8.09-4.88l-1.92-1.16q-1-.5-1.87-.94a36.73 36.73 0 0 0-3.46-1.49c-2.16-.78-4-1.08-5.35-.59-2.46-.67-4.95-1.27-7.41-1.9 9 3.89-2 1.09 1.49 3.19-3.61-1.19-8.75-4.75-4.3-3.23l.61.46c1.17-.65-1.55-2-4.59-3.1s-6.24-2.27-5.89-2.9c-.58-.19-1.12-.39-1.74-.57l-1.84-.54c-1.25-.32-2.52-.63-3.82-.85a27 27 0 0 0-8.17-.28 19.76 19.76 0 0 0-4.25 1 17.32 17.32 0 0 0-4 2.15 17.84 17.84 0 0 0-5.66 6.92 21.41 21.41 0 0 0-1.44 4.06c-.09.36-.16.69-.24 1.11a9.7 9.7 0 0 0-.15 1.28l-.1 1.86C97 274 97 276.36 97 278.69s.1 4.63.16 6.94.28 4.57.44 6.84l1.4-2.23c.11 2.1.3 4.19.5 6.28-.2 1.68-1 2.35-1.44-2.14-.66 2.46 1.56 7.45 2 7.51.55 8.82-2.36-3.17-2-.49l.63 3.64.07-.85c.53 1.43 1 2.19 1.38 3.26a14.51 14.51 0 0 1 .57 2c.2.81.41 1.82.62 3.15.26 3.43-.69 1.9-.53 3.24-.11 0-.09.47.3 2.05.42 2.62 1 5.22 1.45 7.84l.61-3.38c1.34 3.32 1.45 7.31 2.13 3.43a12.53 12.53 0 0 0-.09 2.9c.11 1.19.32 2.57.59 4.09a94 94 0 0 0 2.35 10l1.47 5c.48 1.61.9 3.13 1.38 4.46a41.82 41.82 0 0 1 1.63 5.55 105.09 105.09 0 0 1 6.22 14.54c-.28-1.5.71-2.84 2.45 2-3.5-.59 2.58 9.18 2.4 13.92-.4-4 7 13.13 6.12 6.91 1.73 4-.87.75 0 4 1.46 2.16 3 4.45 4.41 6.92.69 1.25 1.46 2.47 2.21 3.73l2.26 3.86c1.53 2.61 3.26 5.2 5 7.85.9 1.29 1.86 2.57 2.83 3.85s1.93 2.57 3 3.75c.43-.1-.49-2.12 1.73-.39 1 2.12 1.88 4.33 3 6.44 1.9 1.75 3.23.21 5.44 4.52-.23-.7-.56-1.73.73-.61a92.86 92.86 0 0 0 6.48 7c1.16 1.1 2.27 2.24 3.49 3.27l3.66 3.12a150.65 150.65 0 0 0 15.83 11.13c11.08 6.74 22.72 12.33 34.49 18-3.1-1.8-.85-1.15 1.7-.36-1.6-.7.33-.91.16-1.52 1.62.8 3.28 1.49 4.93 2.24s3.34 1.41 5 2c1.13-.49 3.94.13 6.69.6s5.43.83 6.07.21c-1.14-.07-2.28-.13-3.42-.24 2.37-.47.92-1.63-.91-2.92s-4-2.83-3.49-3.82c-2.57.45-5.56-1-8.84-2.52s-6.84-3.23-11-3.31c-1.49-1 1.64-.13.93-.92-2.18.15-4.57-.5-8.53-2.68h.56c-1.47-.57-2.79-1.21-4.05-1.79s-2.43-1.16-3.52-1.77-2.16-1.17-3.18-1.77l-3-1.87c-1-.61-2-1.28-3-2l-3.16-2.2c-2.16-1.62-4.59-3.35-7.34-5.55l.24 1.47a18.51 18.51 0 0 1-3.68-3.61c-1.85-.44-.21.92 1.53 2.24s3.52 2.64 1.71 2.44c-1.05-2-5.39-5.19-9.34-8.6-1-.85-2-1.69-2.88-2.51s-1.71-1.68-2.41-2.45c-1.42-1.53-2.37-2.85-2.41-3.78-3.29-3.3.12 1.84-3.19-1.47l-.41-1.34-1.45-.25c-2-2.36-2.43-4.06-2.09-4.52a25.59 25.59 0 0 0 2.11 2 42.78 42.78 0 0 0-4.69-5.5 44.14 44.14 0 0 1-3.56-3.9l2.57 3.68c-4.44-4.59-8.58-10.37-12.58-16.15-1.89-3-3.93-5.84-5.67-8.74-.91-1.43-1.82-2.84-2.73-4.19s-1.68-2.78-2.53-4.09v1.08c-5.05-8.14-3.08-7-7.65-16.41l.26.3a25.89 25.89 0 0 1-2-3.07c-.32-.58-.64-1.19-.94-1.83s-.54-1.31-.78-2c1.49 2.25-.73-5.07 1.11-2.07-2.31-4.63-3-5.76-3.54-6.44a19 19 0 0 1-3.1-3.85l.28-1.77c-1.45-2-1.89-2-3.76-7 2 3.89.16-3.56 2.56.74a48 48 0 0 0-1.57-7.1c-.63-2-1.34-3.74-2-5.3-1.14-3.14-2-5.62-1.32-8.36-3.44-4.38 1 9.54-.11 6.91-.15 2.5-2.66-3.64-3.27-7.08-.43-1.72 0-3.37.29-5.63a32 32 0 0 0-.41-9.49c.14.87.32.89.46 1.76a18.64 18.64 0 0 0-.9-4.89 25.37 25.37 0 0 1-.57-2.59 13.37 13.37 0 0 1-.06-2.9c-1.67-2.06-.65-5.2-2.47-5.64l1.5 8c-.54-2.24-1.47-4.36-2.28-6.89a27.85 27.85 0 0 1-1.2-9.32 24.67 24.67 0 0 1 1.52 4.28 10.32 10.32 0 0 0-.26-3.24 10.52 10.52 0 0 1-.16-3.31c1.78.5 1.21 9.77 3.31 14.45.23-1.22-.47-3.46-.79-5.15s-.5-2.78.58-1.66c-2.81-3.27-.6-8.6-2.72-14.41l1.08.34a20 20 0 0 1-.82-4.57c.49 1 1 2 1.48 3.06a11.77 11.77 0 0 1-.46-3.5 22.35 22.35 0 0 1 .28-3.42c.15-1.13.34-2.23.46-3.31v-.88c0-.32.1-.7.13-1.08-.11.38-.19.73-.24 1a3.16 3.16 0 0 0-.08.45 13.24 13.24 0 0 1-.18 1.5c-.15.68-.33.78-.54.7-.41-.15-.94-1-1.32 1-.09-.74-.16-1.41-.19-2v-1.53a2.51 2.51 0 0 1 0-.41c0-.17.07-.34.11-.49a5 5 0 0 1 .32-.86 4.31 4.31 0 0 1 1.79-1.92c.67-.4 1.36-.74 2.18-1.19l1.36-.77a13.48 13.48 0 0 1 2-.95 11.29 11.29 0 0 1-2 .54 1.33 1.33 0 0 1-.71 0c-.12-.07-.14-.29.16-.61a6.49 6.49 0 0 1 2.44-.6 5.43 5.43 0 0 1 2.29.34 22.83 22.83 0 0 0 2.63-.23c.29-.08 0-.29-.33-.46-.73-.38-2-.78-.5-1.06a4.33 4.33 0 0 0 .84.39 3.17 3.17 0 0 0 .78.2 6.54 6.54 0 0 0 1.54-.05 17.18 17.18 0 0 1 1.81-.23 8.63 8.63 0 0 1 2.36.13l-.29 1c9.23 3.86 3.23-1.3 11.54 2.47-1.37 0-2.76.09-4.13.14 1.53.41 3.08.74 4.58 1.23l-1.33.79c5.07 1.07 6.52 1.8 11 4.08-.77-1.18 1.37-1.52 5.47.3 2.52 1.84-2 .23 3.86 2.69a6.48 6.48 0 0 1-5.46-1.89c-.4.2-1.56 0-2 .23 2.67 2 7.41 3.48 9.41 4.58a13.89 13.89 0 0 1-2.09-1.34l8.83 2.82c1.1 1-.08.78-1.23.55.85.38 1.63.57 2.48.88a23.27 23.27 0 0 1 3 1.31c-1 .43-1.32 1.25-4.88-.22 2.7 1.08 5.34 2.27 8 3.41.32.61 3.34 3.1 2.2 2.82a39.32 39.32 0 0 0 7.48 4l2.18 1c.72.37 1.42.79 2.12 1.21a28.91 28.91 0 0 1 4 2.83 7.33 7.33 0 0 1 2.2 1 38.19 38.19 0 0 1 3.39 2.83c1.09 1 2.16 2 3.29 2.91s2.32 1.9 3.61 2.83a39.63 39.63 0 0 0 4.17 2.86l2 3.79c2.23 1.66 1.52.41 1.18-.56-.17-.49-.25-.91.18-.86a8.6 8.6 0 0 1 3.19 2c5.15 4.15.88 2.66 2.26 4.56.73.41 1.6.89 2.56 1.46a22.74 22.74 0 0 1 3 2A25.33 25.33 0 0 1 226 328c-1.58-1.21-2.49-2.49-3.87-3.76zm39.62 55.53c-.37-.56-1-1.39-1.48-2.17a4.1 4.1 0 0 1-.82-2.09c1.79.74 1.71 2.04 2.3 4.27zm26.09 101.93a8.61 8.61 0 0 1 0-4.32 18 18 0 0 1 0 4.32zM139.09 307.95a1 1 0 0 0-.07-.14l.06-1.53v-.27c0 .02.01.92.01 1.94zm.23 6.2c.23.6.37.54.49.26a8 8 0 0 1-.63-3.35c-.24.46-.35 1.28.14 3.08zm-38 2.29l.07-1.28c.75 2.71.34 1.99-.1 1.27z" transform="translate(-6.51 -167.94)"/>
  <path class="cls-7" d="M285.56 469.82a1 1 0 0 1 .52-.63c-.24-.51-.45-.5-.52.63zM189.32 297l-.16-.13a.5.5 0 0 0-.28 0zm11.31 29.74a9.58 9.58 0 0 1 1.61 2.06c.22-.15-.1-.71-1.61-2.06zm-53.22 19.16l-1.24-3.76a13.08 13.08 0 0 1 .53 3.54c.23-.14.39-.97.71.22zm4.84 34.98c.35.5.5 1.15.84 1.64l.4-.34c-1-2.31-2.05-3.79-1.24-1.3zm-7.3-30.49c-.77.55.18 2.9 1.15 5.53-.05-.16-.11-.31-.15-.47 1.44.43.2-2.31-1-5.06zm1.38 6.15c.3.81.59 1.65.8 2.47.58.16-.22-1.01-.8-2.47zM141 321.83c0 1.34 1.27.63 1 1.42 1.45 1.27-2.72-8.43-1-1.42z" transform="translate(-6.51 -167.94)"/>
  <path class="cls-7" d="M136.2 185.46l.79-1.29-1.3-1.28.51 2.57z"/>
  <path class="cls-7" d="M138.21 331.5c.17 1.5.37 3 .62 4.49.17-.11.4.43.64 1.1-.61-2.72-.96-5.76-1.26-5.59zm1.25 5.59a18.34 18.34 0 0 0 1 3.5c-.21-.76-.61-2.4-1-3.5z" transform="translate(-6.51 -167.94)"/>
  <path class="cls-7" d="M134.21 179.58l-.11-1.36-.7-3.12.81 4.48z"/>
  <path class="cls-7" d="M141.44 297c1.32.45 2.67 1 4.1 1.49.62-.14-.51-.91-2.18-1.5-1.09-.21-2.6-.69-1.92.01zm-10.44-.49c.17-1.43.43-1.29.78-1.75l-1.45-1.7zm9.45-3.58a21.49 21.49 0 0 1 3.58.77c1.21.32 1.4.18-2.58-1.46a21.19 21.19 0 0 1-2.83-.57c-.86-.17-.87-.01 1.83 1.26z" transform="translate(-6.51 -167.94)"/>
  <path class="cls-7" d="M197.5 166.72l-.95-.83-1.37 1.82 2.32-.99z"/>
  <path class="cls-7" d="M250.76 382.06c-1.37-2.68-1.86-2.79-2.29-2.85s-.79-.07-2-2.49c-1.22-.87 2 4 .8 3 2.36 2.76 3.11 4.53 3.49 2.34zm-3.52-2.31a17.43 17.43 0 0 0-1.3-1.34 16.24 16.24 0 0 0 1.3 1.34zm-4.18 106.85c1.27.39 2.55.75 3.84 1.09-.82-.36-1.61-.76-2.41-1.14zm7.73-.6l.8 1.53 2.61-1.13a8.43 8.43 0 0 1-3.41-.4zm12.12-95.7l.43.13c.14-.66-.14-1.47-.72-3.09z" transform="translate(-6.51 -167.94)"/>
  <path class="cls-7" d="M233.55 179.02l.5.69.07-2.04-.57 1.35z"/>
  <path class="cls-7" d="M211.06 317.38c1.19 1.2 2.84 2.34 4 3.54-2.81-2.34-3.23-5.05-4-3.54z" transform="translate(-6.51 -167.94)"/>
  <text transform="translate(94.89 482.52)" font-size="80.21" fill="#4a494a" font-family="Aclonica-Regular,Aclonica">
    <tspan letter-spacing="-.04em">K</tspan><tspan x="54.79" y="0">al</tspan><tspan x="187.45" y="0" letter-spacing="-.01em">-</tspan><tspan x="224.19" y="0" letter-spacing="-.04em">K</tspan><tspan x="278.98" y="0">al</tspan>
  </text>
</svg>
