<?xml version="1.0" standalone="no"?>
<!DOCTYPE svg PUBLIC "-//W3C//DTD SVG 20010904//EN"
 "http://www.w3.org/TR/2001/REC-SVG-20010904/DTD/svg10.dtd">
<svg version="1.0" xmlns="http://www.w3.org/2000/svg"
 width="113.000000pt" height="113.000000pt" viewBox="0 0 113.000000 113.000000"
 preserveAspectRatio="xMidYMid meet">
<metadata>
Created by potrace 1.11, written by Peter Selinger 2001-2013
</metadata>
<g transform="translate(0.000000,113.000000) scale(0.100000,-0.100000)"
fill="#000000" stroke="none">
<path d="M529 917 c-53 -61 -79 -125 -79 -199 l0 -50 -39 35 c-59 53 -136 93
-196 102 -72 10 -18 -242 74 -347 l31 -36 -61 19 c-103 32 -259 25 -259 -12 0
-5 23 -36 51 -70 82 -98 225 -155 357 -142 28 3 52 11 52 17 0 6 4 17 9 25 8
12 16 11 48 -10 70 -46 132 -63 222 -61 129 3 255 51 343 130 39 36 48 50 48
77 0 19 -4 36 -9 39 -10 6 -94 15 -173 18 -32 2 -58 4 -58 5 0 1 14 26 31 54
46 79 59 118 63 189 4 74 -6 110 -29 110 -31 0 -161 -67 -194 -101 -19 -19
-32 -28 -27 -21 4 6 3 12 -1 12 -5 0 -10 12 -11 26 -1 14 -11 45 -21 69 -11
24 -16 46 -13 50 4 4 -1 11 -11 16 -9 6 -17 15 -17 22 0 13 -67 87 -78 87 -4
0 -28 -24 -53 -53z m270 -281 c-29 -30 -55 -53 -58 -50 -2 2 4 11 15 18 10 8
19 19 19 25 0 9 61 59 73 61 2 0 -20 -25 -49 -54z m-190 -273 c-2 -16 -7 -34
-12 -40 -6 -8 -6 -13 0 -13 5 0 10 -7 10 -15 0 -8 -4 -15 -7 -15 -16 0 -28 27
-32 68 -3 39 -2 42 20 42 20 0 23 -5 21 -27z m-69 -23 c8 -5 12 -12 8 -15 -10
-10 -49 5 -43 16 8 11 16 11 35 -1z"/>
</g>
</svg>
